<svg width="700" height="700"><g transform="translate(350,350)"><defs><linearGradient id="linkGrad-18-19" gradientUnits="userSpaceOnUse" x1="-211.4636378687701" y1="-146.75792945972518" x2="-168.69948086626698" y2="-194.40999242696358"><stop offset="0%" stop-color="#849200"></stop><stop offset="100%" stop-color="#f2df5c"></stop></linearGradient><linearGradient id="linkGrad-1-12" gradientUnits="userSpaceOnUse" x1="106.27179889026176" y1="-234.43776308570207" x2="-164.38629726002318" y2="198.07045532622809"><stop offset="0%" stop-color="#083E77"></stop><stop offset="100%" stop-color="#63f3ff"></stop></linearGradient><linearGradient id="linkGrad-11-12" gradientUnits="userSpaceOnUse" x1="-96.75875660389065" y1="238.5214938333002" x2="-134.82533249684772" y2="219.26442875467623"><stop offset="0%" stop-color="#ffba63"></stop><stop offset="100%" stop-color="#63f3ff"></stop></linearGradient><linearGradient id="linkGrad-11-1" gradientUnits="userSpaceOnUse" x1="-32.27087832728034" y1="255.3690474822387" x2="135.98392837057358" y2="-218.5477778997232"><stop offset="0%" stop-color="#ffba63"></stop><stop offset="100%" stop-color="#083E77"></stop></linearGradient><linearGradient id="linkGrad-8-9" gradientUnits="userSpaceOnUse" x1="148.13019175395138" y1="210.50464672053587" x2="115.61293410130374" y2="229.9748018120412"><stop offset="0%" stop-color="#DF7C00"></stop><stop offset="100%" stop-color="#7a7a7a"></stop></linearGradient><linearGradient id="linkGrad-3-6" gradientUnits="userSpaceOnUse" x1="256.1334118477829" y1="-25.503633764898115" x2="233.1076791633263" y2="109.1584624071251"><stop offset="0%" stop-color="#567235"></stop><stop offset="100%" stop-color="#82168b"></stop></linearGradient><linearGradient id="linkGrad-10-14" gradientUnits="userSpaceOnUse" x1="8.561291443182911" y1="257.2575835399705" x2="-245.69196624670826" y2="76.74775385525228"><stop offset="0%" stop-color="#00ff34"></stop><stop offset="100%" stop-color="#ff878d"></stop></linearGradient><linearGradient id="linkGrad-2-3" gradientUnits="userSpaceOnUse" x1="216.8586362258517" y1="-138.66178959707588" x2="231.84894432172672" y2="-111.80709734583436"><stop offset="0%" stop-color="#342350"></stop><stop offset="100%" stop-color="#567235"></stop></linearGradient><linearGradient id="linkGrad-3-4" gradientUnits="userSpaceOnUse" x1="257.38998230102055" y1="-2.2709053437661453" x2="255.8235252097142" y2="28.44440101803405"><stop offset="0%" stop-color="#567235"></stop><stop offset="100%" stop-color="#301E1E"></stop></linearGradient><linearGradient id="linkGrad-1-2" gradientUnits="userSpaceOnUse" x1="175.92581975098992" y1="-187.89589124018178" x2="197.08050403487184" y2="-165.57184219957475"><stop offset="0%" stop-color="#083E77"></stop><stop offset="100%" stop-color="#342350"></stop></linearGradient><linearGradient id="linkGrad-1-3" gradientUnits="userSpaceOnUse" x1="162.9042973483727" y1="-199.29111848106274" x2="238.83696464105589" y2="-95.97741568226893"><stop offset="0%" stop-color="#083E77"></stop><stop offset="100%" stop-color="#567235"></stop></linearGradient><linearGradient id="linkGrad-11-19" gradientUnits="userSpaceOnUse" x1="-54.615511425439465" y1="251.5390743239263" x2="-135.57664132338053" y2="-218.80067259373644"><stop offset="0%" stop-color="#ffba63"></stop><stop offset="100%" stop-color="#f2df5c"></stop></linearGradient><linearGradient id="linkGrad-11-14" gradientUnits="userSpaceOnUse" x1="-75.11072213767785" y1="246.1973586778635" x2="-239.65525828396866" y2="93.91547889908395"><stop offset="0%" stop-color="#ffba63"></stop><stop offset="100%" stop-color="#ff878d"></stop></linearGradient><linearGradient id="linkGrad-0-10" gradientUnits="userSpaceOnUse" x1="33.91781204714425" y1="-255.1555251722655" x2="57.02221988627393" y2="251.00443509874768"><stop offset="0%" stop-color="#8B161C"></stop><stop offset="100%" stop-color="#00ff34"></stop></linearGradient><linearGradient id="linkGrad-13-14" gradientUnits="userSpaceOnUse" x1="-220.0822104197144" y1="133.4862564340336" x2="-233.43646770777957" y2="108.45356399913655"><stop offset="0%" stop-color="#f00511"></stop><stop offset="100%" stop-color="#ff878d"></stop></linearGradient><linearGradient id="linkGrad-10-19" gradientUnits="userSpaceOnUse" x1="42.38568446211888" y1="253.88622206153235" x2="-122.14877999838082" y2="-226.57103862785988"><stop offset="0%" stop-color="#00ff34"></stop><stop offset="100%" stop-color="#f2df5c"></stop></linearGradient><linearGradient id="linkGrad-8-3" gradientUnits="userSpaceOnUse" x1="187.30055228012066" y1="176.5595172047143" x2="253.79155651073722" y2="-42.948874768232145"><stop offset="0%" stop-color="#DF7C00"></stop><stop offset="100%" stop-color="#567235"></stop></linearGradient><linearGradient id="linkGrad-3-13" gradientUnits="userSpaceOnUse" x1="246.69884397148417" y1="-73.44685414048257" x2="-202.98186166882064" y2="158.28178617092925"><stop offset="0%" stop-color="#567235"></stop><stop offset="100%" stop-color="#f00511"></stop></linearGradient><linearGradient id="linkGrad-8-14" gradientUnits="userSpaceOnUse" x1="163.32620336484217" y1="198.94549830148517" x2="-250.15326454285656" y2="60.64737618851825"><stop offset="0%" stop-color="#DF7C00"></stop><stop offset="100%" stop-color="#ff878d"></stop></linearGradient><linearGradient id="linkGrad-10-17" gradientUnits="userSpaceOnUse" x1="28.793170453952932" y1="255.78450565898166" x2="-249.35654136858375" y2="-63.84414833559763"><stop offset="0%" stop-color="#00ff34"></stop><stop offset="100%" stop-color="#fbb3f3"></stop></linearGradient><linearGradient id="linkGrad-1-6" gradientUnits="userSpaceOnUse" x1="151.32719667322854" y1="-208.21824979338874" x2="225.3912811497926" y2="124.31222941309986"><stop offset="0%" stop-color="#083E77"></stop><stop offset="100%" stop-color="#82168b"></stop></linearGradient><linearGradient id="linkGrad-0-20" gradientUnits="userSpaceOnUse" x1="5.967314929813251" y1="-257.3308204481703" x2="-67.06935892978811" y2="-248.50847287919032"><stop offset="0%" stop-color="#8B161C"></stop><stop offset="100%" stop-color="#e26c2c"></stop></linearGradient><linearGradient id="linkGrad-7-13" gradientUnits="userSpaceOnUse" x1="203.78535594664243" y1="157.24594971477094" x2="-192.8800546931934" y2="170.44660308011638"><stop offset="0%" stop-color="#67a8b5"></stop><stop offset="100%" stop-color="#f00511"></stop></linearGradient><linearGradient id="linkGrad-3-9" gradientUnits="userSpaceOnUse" x1="251.59112219288" y1="-54.375244677402094" x2="99.90056948241526" y2="237.2227565329455"><stop offset="0%" stop-color="#567235"></stop><stop offset="100%" stop-color="#7a7a7a"></stop></linearGradient><linearGradient id="linkGrad-3-15" gradientUnits="userSpaceOnUse" x1="243.2251020495655" y1="-84.23959717958328" x2="-257.2006168547721" y2="-10.12929857022417"><stop offset="0%" stop-color="#567235"></stop><stop offset="100%" stop-color="#b9a000"></stop></linearGradient><linearGradient id="linkGrad-8-22" gradientUnits="userSpaceOnUse" x1="176.7578508655818" y1="187.11339384817103" x2="-21.20094432568964" y2="-256.52539827412613"><stop offset="0%" stop-color="#DF7C00"></stop><stop offset="100%" stop-color="#3e0000"></stop></linearGradient><linearGradient id="linkGrad-13-20" gradientUnits="userSpaceOnUse" x1="-209.5821861415187" y1="149.43248392549" x2="-80.21964780720013" y2="-244.58039190762776"><stop offset="0%" stop-color="#f00511"></stop><stop offset="100%" stop-color="#e26c2c"></stop></linearGradient><linearGradient id="linkGrad-1-14" gradientUnits="userSpaceOnUse" x1="82.41029150779649" y1="-243.85098698508483" x2="-252.46573034017763" y2="50.15790071165989"><stop offset="0%" stop-color="#083E77"></stop><stop offset="100%" stop-color="#ff878d"></stop></linearGradient><linearGradient id="linkGrad-3-10" gradientUnits="userSpaceOnUse" x1="249.62129602966567" y1="-62.80102362597305" x2="68.30824348330754" y2="248.17079576820714"><stop offset="0%" stop-color="#567235"></stop><stop offset="100%" stop-color="#00ff34"></stop></linearGradient><linearGradient id="linkGrad-5-7" gradientUnits="userSpaceOnUse" x1="248.0153489831385" y1="68.87050652327197" x2="211.36737422515225" y2="146.896538805938"><stop offset="0%" stop-color="#feff00"></stop><stop offset="100%" stop-color="#67a8b5"></stop></linearGradient><linearGradient id="linkGrad-14-16" gradientUnits="userSpaceOnUse" x1="-256.0867039831084" y1="25.968443216100585" x2="-254.06140574689277" y2="-41.32265855330139"><stop offset="0%" stop-color="#ff878d"></stop><stop offset="100%" stop-color="#5bdea6"></stop></linearGradient><linearGradient id="linkGrad-19-20" gradientUnits="userSpaceOnUse" x1="-109.35884649847326" y1="-233.0137392784455" x2="-90.91252913145051" y2="-240.81044837573637"><stop offset="0%" stop-color="#f2df5c"></stop><stop offset="100%" stop-color="#e26c2c"></stop></linearGradient><linearGradient id="linkGrad-8-15" gradientUnits="userSpaceOnUse" x1="171.0387020287835" y1="192.35519854765823" x2="-257.38905504904363" y2="-2.373676675626858"><stop offset="0%" stop-color="#DF7C00"></stop><stop offset="100%" stop-color="#b9a000"></stop></linearGradient><linearGradient id="linkGrad-0-1" gradientUnits="userSpaceOnUse" x1="48.642099353596684" y1="-252.76215335859686" x2="68.14552177722442" y2="-248.21552703590052"><stop offset="0%" stop-color="#8B161C"></stop><stop offset="100%" stop-color="#083E77"></stop></linearGradient><linearGradient id="linkGrad-14-18" gradientUnits="userSpaceOnUse" x1="-255.26519112909233" y1="33.08235478057721" x2="-237.50892204253145" y2="-99.21830451179223"><stop offset="0%" stop-color="#ff878d"></stop><stop offset="100%" stop-color="#849200"></stop></linearGradient><linearGradient id="linkGrad-1-21" gradientUnits="userSpaceOnUse" x1="75.02414559921853" y1="-246.22375510317292" x2="-41.66901350380864" y2="-254.00482931160863"><stop offset="0%" stop-color="#083E77"></stop><stop offset="100%" stop-color="#f359ff"></stop></linearGradient><linearGradient id="linkGrad-18-10" gradientUnits="userSpaceOnUse" x1="-231.88292174374973" y1="-111.73661263695996" x2="35.306533332729956" y2="254.967073764486"><stop offset="0%" stop-color="#849200"></stop><stop offset="100%" stop-color="#00ff34"></stop></linearGradient><linearGradient id="linkGrad-0-14" gradientUnits="userSpaceOnUse" x1="23.242910294004155" y1="-256.3484486418143" x2="-253.76334360111343" y2="43.11525767501865"><stop offset="0%" stop-color="#8B161C"></stop><stop offset="100%" stop-color="#ff878d"></stop></linearGradient><linearGradient id="linkGrad-2-7" gradientUnits="userSpaceOnUse" x1="209.6801127983139" y1="-149.29504444852273" x2="208.08084364326137" y2="151.51608003346914"><stop offset="0%" stop-color="#342350"></stop><stop offset="100%" stop-color="#67a8b5"></stop></linearGradient><linearGradient id="linkGrad-6-4" gradientUnits="userSpaceOnUse" x1="239.4799224660528" y1="94.36168044102094" x2="253.54298457400506" y2="44.39273559160152"><stop offset="0%" stop-color="#82168b"></stop><stop offset="100%" stop-color="#301E1E"></stop></linearGradient><linearGradient id="linkGrad-9-15" gradientUnits="userSpaceOnUse" x1="93.26271297343924" y1="239.9100380743455" x2="-257.37490748412847" y2="3.594022472987312"><stop offset="0%" stop-color="#7a7a7a"></stop><stop offset="100%" stop-color="#b9a000"></stop></linearGradient><linearGradient id="linkGrad-17-18" gradientUnits="userSpaceOnUse" x1="-245.5991602319557" y1="-77.04422426994884" x2="-239.7452705625062" y2="-93.68545907936145"><stop offset="0%" stop-color="#fbb3f3"></stop><stop offset="100%" stop-color="#849200"></stop></linearGradient><linearGradient id="linkGrad-0-17" gradientUnits="userSpaceOnUse" x1="14.315448878861952" y1="-257.0016107408604" x2="-246.98585613736773" y2="-72.47583644285528"><stop offset="0%" stop-color="#8B161C"></stop><stop offset="100%" stop-color="#fbb3f3"></stop></linearGradient><linearGradient id="linkGrad-2-22" gradientUnits="userSpaceOnUse" x1="203.99884886609297" y1="-156.96888118767038" x2="-14.950328674550562" y2="-256.9654600768806"><stop offset="0%" stop-color="#342350"></stop><stop offset="100%" stop-color="#3e0000"></stop></linearGradient><linearGradient id="linkGrad-4-10" gradientUnits="userSpaceOnUse" x1="253.84562422547833" y1="42.6281486998587" x2="73.75740862297015" y2="246.60617322610605"><stop offset="0%" stop-color="#301E1E"></stop><stop offset="100%" stop-color="#00ff34"></stop></linearGradient><linearGradient id="linkGrad-19-21" gradientUnits="userSpaceOnUse" x1="-114.19689237595747" y1="-230.6812297775309" x2="-46.959776479962144" y2="-253.08010469602706"><stop offset="0%" stop-color="#f2df5c"></stop><stop offset="100%" stop-color="#f359ff"></stop></linearGradient><linearGradient id="linkGrad-9-11" gradientUnits="userSpaceOnUse" x1="89.35696158371772" y1="241.39199120212336" x2="-16.232050621007797" y2="256.8876807724284"><stop offset="0%" stop-color="#7a7a7a"></stop><stop offset="100%" stop-color="#ffba63"></stop></linearGradient><linearGradient id="linkGrad-18-20" gradientUnits="userSpaceOnUse" x1="-225.88442997289255" y1="-123.41387400054107" x2="-85.8682051688424" y2="-242.65492235081817"><stop offset="0%" stop-color="#849200"></stop><stop offset="100%" stop-color="#e26c2c"></stop></linearGradient><linearGradient id="linkGrad-3-5" gradientUnits="userSpaceOnUse" x1="257.07112709517594" y1="-13.007521440148583" x2="249.4720001837298" y2="63.39149094578181"><stop offset="0%" stop-color="#567235"></stop><stop offset="100%" stop-color="#feff00"></stop></linearGradient><linearGradient id="linkGrad-0-15" gradientUnits="userSpaceOnUse" x1="18.48440949253339" y1="-256.73544088363093" x2="-256.8966629387232" y2="-16.08926881334467"><stop offset="0%" stop-color="#8B161C"></stop><stop offset="100%" stop-color="#b9a000"></stop></linearGradient><linearGradient id="linkGrad-0-8" gradientUnits="userSpaceOnUse" x1="43.357604220315125" y1="-253.72204901481174" x2="181.04820253525133" y2="182.96532009852206"><stop offset="0%" stop-color="#8B161C"></stop><stop offset="100%" stop-color="#DF7C00"></stop></linearGradient><linearGradient id="linkGrad-15-16" gradientUnits="userSpaceOnUse" x1="-256.6479945408744" y1="-19.66130458914979" x2="-254.86829774538995" y2="-36.01264783888113"><stop offset="0%" stop-color="#b9a000"></stop><stop offset="100%" stop-color="#5bdea6"></stop></linearGradient><linearGradient id="linkGrad-13-18" gradientUnits="userSpaceOnUse" x1="-214.980101313783" y1="141.5567590725205" x2="-235.38701729005794" y2="-104.15235038773719"><stop offset="0%" stop-color="#f00511"></stop><stop offset="100%" stop-color="#849200"></stop></linearGradient><linearGradient id="linkGrad-13-19" gradientUnits="userSpaceOnUse" x1="-212.99015774454463" y1="144.53356947074272" x2="-144.09307509586048" y2="-213.28840969311653"><stop offset="0%" stop-color="#f00511"></stop><stop offset="100%" stop-color="#f2df5c"></stop></linearGradient><linearGradient id="linkGrad-4-13" gradientUnits="userSpaceOnUse" x1="254.4140468746571" y1="39.09287342802788" x2="-197.546985939374" y2="165.01499430739253"><stop offset="0%" stop-color="#301E1E"></stop><stop offset="100%" stop-color="#f00511"></stop></linearGradient><linearGradient id="linkGrad-14-19" gradientUnits="userSpaceOnUse" x1="-254.51935356330546" y1="38.40128463628693" x2="-147.0461076030281" y2="-211.2633480724915"><stop offset="0%" stop-color="#ff878d"></stop><stop offset="100%" stop-color="#f2df5c"></stop></linearGradient><linearGradient id="linkGrad-10-15" gradientUnits="userSpaceOnUse" x1="20.47690960844034" y1="256.5842087364064" x2="-257.28268510785824" y2="7.770453248728401"><stop offset="0%" stop-color="#00ff34"></stop><stop offset="100%" stop-color="#b9a000"></stop></linearGradient><linearGradient id="linkGrad-18-0" gradientUnits="userSpaceOnUse" x1="-227.85754952229215" y1="-119.7317715800455" x2="11.9314222747588" y2="-257.1233189784649"><stop offset="0%" stop-color="#849200"></stop><stop offset="100%" stop-color="#8B161C"></stop></linearGradient><linearGradient id="linkGrad-11-18" gradientUnits="userSpaceOnUse" x1="-65.0624445329736" y1="249.0414389441921" x2="-234.65689381821068" y2="-105.78706056786444"><stop offset="0%" stop-color="#ffba63"></stop><stop offset="100%" stop-color="#849200"></stop></linearGradient><linearGradient id="linkGrad-4-5" gradientUnits="userSpaceOnUse" x1="253.12038685677337" y1="46.7421625246137" x2="249.90688376543156" y2="61.654760129702154"><stop offset="0%" stop-color="#301E1E"></stop><stop offset="100%" stop-color="#feff00"></stop></linearGradient><linearGradient id="linkGrad-5-6" gradientUnits="userSpaceOnUse" x1="246.26541582104173" y1="74.88728176726292" x2="241.3966529580922" y2="89.3443671455028"><stop offset="0%" stop-color="#feff00"></stop><stop offset="100%" stop-color="#82168b"></stop></linearGradient><linearGradient id="linkGrad-2-8" gradientUnits="userSpaceOnUse" x1="206.34116659280153" y1="-153.87684351169202" x2="182.31643458890747" y2="181.70161716063137"><stop offset="0%" stop-color="#342350"></stop><stop offset="100%" stop-color="#DF7C00"></stop></linearGradient><linearGradient id="linkGrad-20-6" gradientUnits="userSpaceOnUse" x1="-74.52797032680697" y1="-246.37439322901758" x2="220.47191362931008" y2="132.84161735175482"><stop offset="0%" stop-color="#e26c2c"></stop><stop offset="100%" stop-color="#82168b"></stop></linearGradient><linearGradient id="linkGrad-6-21" gradientUnits="userSpaceOnUse" x1="221.3905576475128" y1="131.30491607142255" x2="-45.198347043954044" y2="-253.40061054483337"><stop offset="0%" stop-color="#82168b"></stop><stop offset="100%" stop-color="#f359ff"></stop></linearGradient></defs><g class="group"><path d="M1.733732473552908e-14,-283.14000000000004A283.14000000000004,283.14000000000004 0 0,1 57.36881897990714,-277.2671603505375L52.67500651791474,-254.58166541276626A259.97400000000005,259.97400000000005 0 0,0 1.5918816348076704e-14,-259.97400000000005Z" style="fill: rgb(139, 22, 28);"></path><text class="titles" dy="-16"><textPath class="textpath-titles" startOffset="50%" xmlns:xlink="http://www.w3.org/1999/xlink" xlink:href="#arc0" style="text-anchor: middle;">Material*</textPath></text></g><g class="group"><path d="M71.15470523509379,-274.0534026844165A283.14000000000004,283.14000000000004 0 0,1 200.58797678036245,-199.83173714693268L184.17623322560553,-183.48186774400185A259.97400000000005,259.97400000000005 0 0,0 65.33295662494974,-251.63085155569152Z" style="fill: rgb(8, 62, 119);"></path><text class="titles" dy="-16"><textPath class="textpath-titles" startOffset="50%" xmlns:xlink="http://www.w3.org/1999/xlink" xlink:href="#arc1" style="text-anchor: middle;">Disability*</textPath></text></g><g class="group"><path d="M210.32471825800673,-189.5567790655088A283.14000000000004,283.14000000000004 0 0,1 243.70375553912172,-144.14138592412667L223.76435735864814,-132.34799980306175A259.97400000000005,259.97400000000005 0 0,0 193.11633221871526,-174.04758805105809Z" style="fill: rgb(52, 35, 80);"></path><text class="titles" dy="-16"><textPath class="textpath-titles" startOffset="50%" xmlns:xlink="http://www.w3.org/1999/xlink" xlink:href="#arc2" style="text-anchor: middle;">Mental</textPath></text></g><g class="group"><path d="M250.6032560299411,-131.78113547542307A283.14000000000004,283.14000000000004 0 0,1 283.0446343765597,7.348098436988238L259.8864370184775,6.746890383052837A259.97400000000005,259.97400000000005 0 0,0 230.09935326385502,-120.99904257288844Z" style="fill: rgb(86, 114, 53);"></path><text class="titles" dy="25"><textPath class="textpath-titles" startOffset="50%" xmlns:xlink="http://www.w3.org/1999/xlink" xlink:href="#arc3" style="text-anchor: middle;">Race*</textPath></text></g><g class="group"><path d="M282.3236504313872,21.485250920013193A283.14000000000004,283.14000000000004 0 0,1 277.9436208208933,53.996326217359865L255.20277911736562,49.57844498139406A259.97400000000005,259.97400000000005 0 0,0 259.2244426688191,19.727366753830296Z" style="fill: rgb(48, 30, 30);"></path><text class="titles" dy="25"><textPath class="textpath-titles" startOffset="50%" xmlns:xlink="http://www.w3.org/1999/xlink" xlink:href="#arc4" style="text-anchor: middle;">Black*</textPath></text></g><g class="group"><path d="M274.8975721419747,67.82023614267237A283.14000000000004,283.14000000000004 0 0,1 270.1163599742461,84.88469634900937L248.01593052180777,77.93958482954497A259.97400000000005,259.97400000000005 0 0,0 252.40595260308586,62.27130773099918Z" style="fill: rgb(254, 255, 0);"></path><text class="titles" dy="25"><textPath class="textpath-titles" startOffset="50%" xmlns:xlink="http://www.w3.org/1999/xlink" xlink:href="#arc5" style="text-anchor: middle;">White*</textPath></text></g><g class="group"><path d="M265.5363182539014,98.27880386005309A283.14000000000004,283.14000000000004 0 0,1 242.5191049922411,146.12577908693032L222.67663276560322,134.17003352527237A259.97400000000005,259.97400000000005 0 0,0 243.81061948767314,90.23781081695783Z" style="fill: rgb(130, 22, 139);"></path><text class="titles" dy="25"><textPath class="textpath-titles" startOffset="50%" xmlns:xlink="http://www.w3.org/1999/xlink" xlink:href="#arc6" style="text-anchor: middle;">Latin/x</textPath></text></g><g class="group"><path d="M234.91277421395955,158.06406331326957A283.14000000000004,283.14000000000004 0 0,1 220.50604467051488,177.6100894199564L202.4646410156546,163.0783548310509A259.97400000000005,259.97400000000005 0 0,0 215.6926381419083,145.13154904218388Z" style="fill: rgb(103, 168, 181);"></path><text class="titles" dy="25"><textPath class="textpath-titles" startOffset="50%" xmlns:xlink="http://www.w3.org/1999/xlink" xlink:href="#arc7" style="text-anchor: middle;">Invisible</textPath></text></g><g class="group"><path d="M211.35366481004053,188.4088319887501A283.14000000000004,283.14000000000004 0 0,1 151.48043800389212,239.21107102755303L139.08658398539185,219.63925612529872A259.97400000000005,259.97400000000005 0 0,0 194.0610922346736,172.9935639169433Z" style="fill: rgb(223, 124, 0);"></path><text class="titles" dy="25"><textPath class="textpath-titles" startOffset="50%" xmlns:xlink="http://www.w3.org/1999/xlink" xlink:href="#arc8" style="text-anchor: middle;">Feminist*</textPath></text></g><g class="group"><path d="M139.3355562908245,246.48298593032035A283.14000000000004,283.14000000000004 0 0,1 96.44338331053076,266.2084397903606L88.55256103966916,244.4277492620584A259.97400000000005,259.97400000000005 0 0,0 127.93537441248432,226.31619617238505Z" style="fill: rgb(122, 122, 122);"></path><text class="titles" dy="25"><textPath class="textpath-titles" startOffset="50%" xmlns:xlink="http://www.w3.org/1999/xlink" xlink:href="#arc9" style="text-anchor: middle;">Method*</textPath></text></g><g class="group"><path d="M83.01797752119857,270.6959087394743A283.14000000000004,283.14000000000004 0 0,1 -1.740709935750799,283.13464911402065L-1.5982882137348247,259.9690869137826A259.97400000000005,259.97400000000005 0 0,0 76.22559754219142,248.54806166079004Z" style="fill: rgb(0, 255, 52);"></path><text class="titles" dy="25"><textPath class="textpath-titles" startOffset="50%" xmlns:xlink="http://www.w3.org/1999/xlink" xlink:href="#arc10" style="text-anchor: middle;">Embodied*</textPath></text></g><g class="group"><path d="M-15.889369056066919,282.6938052929355A283.14000000000004,283.14000000000004 0 0,1 -121.45528488382244,255.76722497964735L-111.51803430241878,234.84081566313077A259.97400000000005,259.97400000000005 0 0,0 -14.589329769661443,259.5643121326044Z" style="fill: rgb(255, 186, 99);"></path><text class="titles" dy="25"><textPath class="textpath-titles" startOffset="50%" xmlns:xlink="http://www.w3.org/1999/xlink" xlink:href="#arc11" style="text-anchor: middle;">Access*</textPath></text></g><g class="group"><path d="M-134.0865308352119,249.3773483068937A283.14000000000004,283.14000000000004 0 0,1 -198.35976984898335,202.04371137320354L-182.13033413406654,185.51286226085054A259.97400000000005,259.97400000000005 0 0,0 -123.1158146759673,228.97374708178424Z" style="fill: rgb(99, 243, 255);"></path><text class="titles" dy="25"><textPath class="textpath-titles" startOffset="50%" xmlns:xlink="http://www.w3.org/1999/xlink" xlink:href="#arc12" style="text-anchor: middle;">Institution*</textPath></text></g><g class="group"><path d="M-208.20984863935507,191.87735283137735A283.14000000000004,283.14000000000004 0 0,1 -246.40550454499746,139.47253109456807L-226.24505417313404,128.0611421868307A259.97400000000005,259.97400000000005 0 0,0 -191.1744973870442,176.17829669062831Z" style="fill: rgb(240, 5, 17);"></path><text class="titles" dy="25"><textPath class="textpath-titles" startOffset="50%" xmlns:xlink="http://www.w3.org/1999/xlink" xlink:href="#arc13" style="text-anchor: middle;">Public*</textPath></text></g><g class="group"><path d="M-253.0682830672546,126.9830843277636A283.14000000000004,283.14000000000004 0 0,1 -282.0654792067685,24.643965587057668L-258.9873945443965,22.62764112993477A259.97400000000005,259.97400000000005 0 0,0 -232.36269627084286,116.59355924640113Z" style="fill: rgb(255, 135, 141);"></path><text class="titles" dy="25"><textPath class="textpath-titles" startOffset="50%" xmlns:xlink="http://www.w3.org/1999/xlink" xlink:href="#arc14" style="text-anchor: middle;">Change*</textPath></text></g><g class="group"><path d="M-282.9446557337673,10.515768716548404A283.14000000000004,283.14000000000004 0 0,1 -282.1555357674881,-23.590532757056405L-259.0700828410573,-21.66039825875179A259.97400000000005,259.97400000000005 0 0,0 -259.7946384464591,9.655387639739898Z" style="fill: rgb(185, 160, 0);"></path><text class="titles" dy="25"><textPath class="textpath-titles" startOffset="50%" xmlns:xlink="http://www.w3.org/1999/xlink" xlink:href="#arc15" style="text-anchor: middle;">Gender*</textPath></text></g><g class="group"><path d="M-280.6238795898096,-37.66295001674824A283.14000000000004,283.14000000000004 0 0,1 -278.8081994708336,-49.33809388121802L-255.99661951412904,-45.301340745482A259.97400000000005,259.97400000000005 0 0,0 -257.66374398700697,-34.58143592446884Z" style="fill: rgb(91, 222, 166);"></path><text class="titles" dy="-16"><textPath class="textpath-titles" startOffset="50%" xmlns:xlink="http://www.w3.org/1999/xlink" xlink:href="#arc16" style="text-anchor: middle;">Sex*</textPath></text></g><g class="group"><path d="M-275.99388487616477,-63.21103630666358A283.14000000000004,283.14000000000004 0 0,1 -269.3615067122332,-87.25043439270412L-247.3228379812323,-80.11176248784652A259.97400000000005,259.97400000000005 0 0,0 -253.41256702266037,-58.03922424520929Z" style="fill: rgb(251, 179, 243);"></path><text class="titles" dy="-16"><textPath class="textpath-titles" startOffset="50%" xmlns:xlink="http://www.w3.org/1999/xlink" xlink:href="#arc17" style="text-anchor: middle;">Object*</textPath></text></g><g class="group"><path d="M-264.6641707397702,-100.60385840826278A283.14000000000004,283.14000000000004 0 0,1 -215.3873187435965,-183.7840105244316L-197.76471993730226,-168.747136936069A259.97400000000005,259.97400000000005 0 0,0 -243.0098294974254,-92.37263362940492Z" style="fill: rgb(132, 146, 0);"></path><text class="titles" dy="-16"><textPath class="textpath-titles" startOffset="50%" xmlns:xlink="http://www.w3.org/1999/xlink" xlink:href="#arc18" style="text-anchor: middle;">Archive*</textPath></text></g><g class="group"><path d="M-205.93276850969596,-194.319207629951A283.14000000000004,283.14000000000004 0 0,1 -116.7175889312489,-257.9636874330882L-107.16796801869216,-236.85756755219919A259.97400000000005,259.97400000000005 0 0,0 -189.0837238134481,-178.42036336931866Z" style="fill: rgb(242, 223, 92);"></path><text class="titles" dy="-16"><textPath class="textpath-titles" startOffset="50%" xmlns:xlink="http://www.w3.org/1999/xlink" xlink:href="#arc19" style="text-anchor: middle;">Digital*</textPath></text></g><g class="group"><path d="M-103.67891153785084,-263.4747481303029A283.14000000000004,283.14000000000004 0 0,1 -67.41916598264147,-274.99621026153267L-61.90305240224354,-252.49652033104363A259.97400000000005,259.97400000000005 0 0,0 -95.19609150293577,-241.9177232832781Z" style="fill: rgb(226, 108, 44);"></path><text class="titles" dy="-16"><textPath class="textpath-titles" startOffset="50%" xmlns:xlink="http://www.w3.org/1999/xlink" xlink:href="#arc20" style="text-anchor: middle;">Memory</textPath></text></g><g class="group"><path d="M-53.59082743931848,-278.022090515069A283.14000000000004,283.14000000000004 0 0,1 -41.944778032877245,-280.01588382763697L-38.51293255746002,-257.1054933326485A259.97400000000005,259.97400000000005 0 0,0 -49.206123376101516,-255.27482856383608Z" style="fill: rgb(243, 89, 255);"></path><text class="titles" dy="-16"><textPath class="textpath-titles" startOffset="50%" xmlns:xlink="http://www.w3.org/1999/xlink" xlink:href="#arc21" style="text-anchor: middle;">Machine*</textPath></text></g><g class="group"><path d="M-27.897396726245194,-281.7623020489052A283.14000000000004,283.14000000000004 0 0,1 -14.151101987299867,-282.7861487282308L-12.993284551975332,-259.649100195921A259.97400000000005,259.97400000000005 0 0,0 -25.614882448643314,-258.70902279035846Z" style="fill: rgb(62, 0, 0);"></path><text class="titles" dy="-16"><textPath class="textpath-titles" startOffset="50%" xmlns:xlink="http://www.w3.org/1999/xlink" xlink:href="#arc22" style="text-anchor: middle;">medrhet</textPath></text></g><path class="hiddenArcs" id="arc0" d="M1.733732473552908e-14 -283.14000000000004A283.14000000000004 283.14000000000004 0 0 1 57.36881897990714 -277.2671603505375" style="fill: none;"></path><path class="hiddenArcs" id="arc1" d="M71.15470523509379 -274.0534026844165A283.14000000000004 283.14000000000004 0 0 1 200.58797678036245 -199.83173714693268" style="fill: none;"></path><path class="hiddenArcs" id="arc2" d="M210.32471825800673 -189.5567790655088A283.14000000000004 283.14000000000004 0 0 1 243.70375553912172 -144.14138592412667" style="fill: none;"></path><path class="hiddenArcs" id="arc3" d="M283.0446343765597 7.348098436988238A283.14000000000004 283.14000000000004 0 0 0 250.6032560299411 -131.78113547542307" style="fill: none;"></path><path class="hiddenArcs" id="arc4" d="M277.9436208208933 53.996326217359865A283.14000000000004 283.14000000000004 0 0 0 282.3236504313872 21.485250920013193" style="fill: none;"></path><path class="hiddenArcs" id="arc5" d="M270.1163599742461 84.88469634900937A283.14000000000004 283.14000000000004 0 0 0 274.8975721419747 67.82023614267237" style="fill: none;"></path><path class="hiddenArcs" id="arc6" d="M242.5191049922411 146.12577908693032A283.14000000000004 283.14000000000004 0 0 0 265.5363182539014 98.27880386005309" style="fill: none;"></path><path class="hiddenArcs" id="arc7" d="M220.50604467051488 177.6100894199564A283.14000000000004 283.14000000000004 0 0 0 234.91277421395955 158.06406331326957" style="fill: none;"></path><path class="hiddenArcs" id="arc8" d="M151.48043800389212 239.21107102755303A283.14000000000004 283.14000000000004 0 0 0 211.35366481004053 188.4088319887501" style="fill: none;"></path><path class="hiddenArcs" id="arc9" d="M96.44338331053076 266.2084397903606A283.14000000000004 283.14000000000004 0 0 0 139.3355562908245 246.48298593032035" style="fill: none;"></path><path class="hiddenArcs" id="arc10" d="M-1.740709935750799 283.13464911402065A283.14000000000004 283.14000000000004 0 0 0 83.01797752119857 270.6959087394743" style="fill: none;"></path><path class="hiddenArcs" id="arc11" d="M-121.45528488382244 255.76722497964735A283.14000000000004 283.14000000000004 0 0 0 -15.889369056066919 282.6938052929355" style="fill: none;"></path><path class="hiddenArcs" id="arc12" d="M-198.35976984898335 202.04371137320354A283.14000000000004 283.14000000000004 0 0 0 -134.0865308352119 249.3773483068937" style="fill: none;"></path><path class="hiddenArcs" id="arc13" d="M-246.40550454499746 139.47253109456807A283.14000000000004 283.14000000000004 0 0 0 -208.20984863935507 191.87735283137735" style="fill: none;"></path><path class="hiddenArcs" id="arc14" d="M-282.0654792067685 24.643965587057668A283.14000000000004 283.14000000000004 0 0 0 -253.0682830672546 126.9830843277636" style="fill: none;"></path><path class="hiddenArcs" id="arc15" d="M-282.1555357674881 -23.590532757056405A283.14000000000004 283.14000000000004 0 0 0 -282.9446557337673 10.515768716548404" style="fill: none;"></path><path class="hiddenArcs" id="arc16" d="M-280.6238795898096 -37.66295001674824A283.14000000000004 283.14000000000004 0 0 1 -278.8081994708336 -49.33809388121802" style="fill: none;"></path><path class="hiddenArcs" id="arc17" d="M-275.99388487616477 -63.21103630666358A283.14000000000004 283.14000000000004 0 0 1 -269.3615067122332 -87.25043439270412" style="fill: none;"></path><path class="hiddenArcs" id="arc18" d="M-264.6641707397702 -100.60385840826278A283.14000000000004 283.14000000000004 0 0 1 -215.3873187435965 -183.7840105244316" style="fill: none;"></path><path class="hiddenArcs" id="arc19" d="M-205.93276850969596 -194.319207629951A283.14000000000004 283.14000000000004 0 0 1 -116.7175889312489 -257.9636874330882" style="fill: none;"></path><path class="hiddenArcs" id="arc20" d="M-103.67891153785084 -263.4747481303029A283.14000000000004 283.14000000000004 0 0 1 -67.41916598264147 -274.99621026153267" style="fill: none;"></path><path class="hiddenArcs" id="arc21" d="M-53.59082743931848 -278.022090515069A283.14000000000004 283.14000000000004 0 0 1 -41.944778032877245 -280.01588382763697" style="fill: none;"></path><path class="hiddenArcs" id="arc22" d="M-27.897396726245194 -281.7623020489052A283.14000000000004 283.14000000000004 0 0 1 -14.151101987299867 -282.7861487282308" style="fill: none;"></path><path class="chord" d="M-225.02056323138473,-124.9820231994602A257.40000000000003,257.40000000000003 0 0,1 -195.80665340326954,-167.07637320402873Q 0,0 -187.21160773608722,-176.65382511813726A257.40000000000003,257.40000000000003 0 0,1 -148.51198851037114,-210.23546149186015Q 0,0 -225.02056323138473,-124.9820231994602Z" style="fill: url(&quot;#linkGrad-18-19&quot;); opacity: 0.8;" data-original-title="" title=""></path><path class="chord" d="M86.35686447633024,-242.48144662595683A257.40000000000003,257.40000000000003 0 0,1 125.44680517196878,-224.76178294395632Q 0,0 -147.30097482482938,211.0857238556293A257.40000000000003,257.40000000000003 0 0,1 -180.32706349907576,183.67610124836685Q 0,0 86.35686447633024,-242.48144662595683Z" style="fill: url(&quot;#linkGrad-1-12&quot;); opacity: 0.8;"></path><path class="chord" d="M-82.77862983758345,243.72619564218442A257.40000000000003,257.40000000000003 0 0,1 -110.41389534892949,232.5156590724067Q 0,0 -121.896846213829,226.7066802789943A257.40000000000003,257.40000000000003 0 0,1 -147.30097482482938,211.0857238556293Q 0,0 -82.77862983758345,243.72619564218442Z" style="fill: url(&quot;#linkGrad-11-12&quot;); opacity: 0.8;"></path><path class="chord" d="M-18.018434987015205,256.76856505541855A257.40000000000003,257.40000000000003 0 0,1 -46.42342756258361,253.1790381791936Q 0,0 125.44680517196878,-224.76178294395632A257.40000000000003,257.40000000000003 0 0,1 146.2139145268467,-211.84015483079688Q 0,0 -18.018434987015205,256.76856505541855Z" style="fill: url(&quot;#linkGrad-11-1&quot;); opacity: 0.8;"></path><path class="chord" d="M158.19980718605765,203.04576086757928A257.40000000000003,257.40000000000003 0 0,1 137.70948909444738,217.46461002504822Q 0,0 126.66868753711319,224.07544175483667A257.40000000000003,257.40000000000003 0 0,1 104.28316343778197,235.32909259887288Q 0,0 158.19980718605765,203.04576086757928Z" style="fill: url(&quot;#linkGrad-8-9&quot;); opacity: 0.8;"></path><path class="chord" d="M254.84635573997784,-36.16759552489874A257.40000000000003,257.40000000000003 0 0,1 256.97443508748177,-14.795259763506483Q 0,0 237.45892253873623,99.33790870932653A257.40000000000003,257.40000000000003 0 0,1 228.3505001235112,118.78892664445755Q 0,0 254.84635573997784,-36.16759552489874Z" style="fill: url(&quot;#linkGrad-3-6&quot;); opacity: 0.8;"></path><path class="chord" d="M18.691748059424672,256.7204287829136A257.40000000000003,257.40000000000003 0 0,1 -1.5824635779552718,257.3951355582006Q 0,0 -242.47694073761994,86.3695155163253A257.40000000000003,257.40000000000003 0 0,1 -248.52535409416214,67.00677855539199Q 0,0 18.691748059424672,256.7204287829136Z" style="fill: url(&quot;#linkGrad-10-14&quot;); opacity: 0.8;"></path><path class="chord" d="M211.9061425344582,-146.11826291112928A257.40000000000003,257.40000000000003 0 0,1 221.54886867192883,-131.03762356738787Q 0,0 227.821141845401,-119.8010322503846A257.40000000000003,257.40000000000003 0 0,1 235.59635679873617,-103.67794685063272Q 0,0 211.9061425344582,-146.11826291112928Z" style="fill: url(&quot;#linkGrad-2-3&quot;); opacity: 0.8;"></path><path class="chord" d="M257.15538218655394,-11.219153822254787A257.40000000000003,257.40000000000003 0 0,1 257.3133039786906,6.6800894881711255Q 0,0 256.65786402853377,19.532046290921084A257.40000000000003,257.40000000000003 0 0,1 254.67980237248346,37.322356082015844Q 0,0 257.15538218655394,-11.219153822254787Z" style="fill: url(&quot;#linkGrad-3-4&quot;); opacity: 0.8;"></path><path class="chord" d="M169.2861748084291,-193.89933217711194A257.40000000000003,257.40000000000003 0 0,1 182.35270616396585,-181.66521558812062Q 0,0 191.20428932546065,-172.324344605008A257.40000000000003,257.40000000000003 0 0,1 202.7183764798692,-158.6191030026523Q 0,0 169.2861748084291,-193.89933217711194Z" style="fill: url(&quot;#linkGrad-1-2&quot;); opacity: 0.8;"></path><path class="chord" d="M156.35079940015552,-204.47295059966328A257.40000000000003,257.40000000000003 0 0,1 169.2861748084291,-193.89933217711194Q 0,0 235.59635679873617,-103.67794685063272A257.40000000000003,257.40000000000003 0 0,1 241.82595655224472,-88.17577182872785Q 0,0 156.35079940015552,-204.47295059966328Z" style="fill: url(&quot;#linkGrad-1-3&quot;); opacity: 0.8;"></path><path class="chord" d="M-46.42342756258361,253.1790381791936A257.40000000000003,257.40000000000003 0 0,1 -62.75005757514378,249.63411280174864Q 0,0 -142.60606636162524,-214.28548676208513A257.40000000000003,257.40000000000003 0 0,1 -128.40438561862885,-223.08535082766522Q 0,0 -46.42342756258361,253.1790381791936Z" style="fill: url(&quot;#linkGrad-11-19&quot;); opacity: 0.8;"></path><path class="chord" d="M-67.36923564294246,248.4273456946431A257.40000000000003,257.40000000000003 0 0,1 -82.77862983758345,243.72619564218442Q 0,0 -236.59880848183073,101.36944226431358A257.40000000000003,257.40000000000003 0 0,1 -242.47694073761994,86.3695155163253Q 0,0 -67.36923564294246,248.4273456946431Z" style="fill: url(&quot;#linkGrad-11-14&quot;); opacity: 0.8;"></path><path class="chord" d="M26.21301659456844,-256.06178504613473A257.40000000000003,257.40000000000003 0 0,1 41.59179688896968,-254.01748449968304Q 0,0 64.56061318980333,249.17200329201634A257.40000000000003,257.40000000000003 0 0,1 49.43202815250969,252.60885691663606Q 0,0 26.21301659456844,-256.06178504613473Z" style="fill: url(&quot;#linkGrad-0-10&quot;); opacity: 0.8;"></path><path class="chord" d="M-215.95949616707492,140.0580451643645A257.40000000000003,257.40000000000003 0 0,1 -224.00500413181587,126.79321008597097Q 0,0 -230.062075515686,115.43916757069418A257.40000000000003,257.40000000000003 0 0,1 -236.59880848183073,101.36944226431358Q 0,0 -215.95949616707492,140.0580451643645Z" style="fill: url(&quot;#linkGrad-13-14&quot;); opacity: 0.8;"></path><path class="chord" d="M49.43202815250969,252.60885691663606A257.40000000000003,257.40000000000003 0 0,1 35.306533332729956,254.967073764486Q 0,0 -128.40438561862885,-223.08535082766522A257.40000000000003,257.40000000000003 0 0,1 -115.79862857335567,-229.88135553047803Q 0,0 49.43202815250969,252.60885691663606Z" style="fill: url(&quot;#linkGrad-10-19&quot;); opacity: 0.8;"></path><path class="chord" d="M192.139695281855,171.28075635340917A257.40000000000003,257.40000000000003 0 0,1 182.31643458890747,181.70161716063137Q 0,0 252.55634513523646,-49.69962305622995A257.40000000000003,257.40000000000003 0 0,1 254.84635573997784,-36.16759552489874Q 0,0 192.139695281855,171.28075635340917Z" style="fill: url(&quot;#linkGrad-8-3&quot;); opacity: 0.8;"></path><path class="chord" d="M244.56018361444555,-80.28123436064429A257.40000000000003,257.40000000000003 0 0,1 248.64655407309556,-66.55562446236364Q 0,0 -198.68996576920927,163.6369686306565A257.40000000000003,257.40000000000003 0 0,1 -207.1294643783077,152.81408634793908Q 0,0 244.56018361444555,-80.28123436064429Z" style="fill: url(&quot;#linkGrad-3-13&quot;); opacity: 0.8;"></path><path class="chord" d="M168.34637219331157,194.71584159834308A257.40000000000003,257.40000000000003 0 0,1 158.19980718605765,203.04576086757928Q 0,0 -248.52535409416214,67.00677855539199A257.40000000000003,257.40000000000003 0 0,1 -251.61847532721288,54.248528772758384Q 0,0 168.34637219331157,194.71584159834308Z" style="fill: url(&quot;#linkGrad-8-14&quot;); opacity: 0.8;" data-original-title="" title=""></path><path class="chord" d="M35.306533332729956,254.967073764486A257.40000000000003,257.40000000000003 0 0,1 22.261080499290344,256.4355753303432Q 0,0 -250.9035317056043,-57.464578460603256A257.40000000000003,257.40000000000003 0 0,1 -247.6473695559174,-70.18219398134322Q 0,0 35.306533332729956,254.967073764486Z" style="fill: url(&quot;#linkGrad-10-17&quot;); opacity: 0.8;"></path><path class="chord" d="M146.2139145268467,-211.84015483079688A257.40000000000003,257.40000000000003 0 0,1 156.35079940015552,-204.47295059966328Q 0,0 228.3505001235112,118.78892664445755A257.40000000000003,257.40000000000003 0 0,1 222.29849094969788,129.76186235364807Q 0,0 146.2139145268467,-211.84015483079688Z" style="fill: url(&quot;#linkGrad-1-6&quot;); opacity: 0.8;"></path><path class="chord" d="M1.5761204305026437e-14,-257.40000000000003A257.40000000000003,257.40000000000003 0 0,1 11.9314222747588,-257.1233189784649Q 0,0 -72.81251546516032,-246.88681129545134A257.40000000000003,257.40000000000003 0 0,1 -61.29015089331043,-249.99655478321148Q 0,0 1.5761204305026437e-14,-257.40000000000003Z" style="fill: url(&quot;#linkGrad-0-20&quot;); opacity: 0.8;"></path><path class="chord" d="M207.02194324438327,152.9597169692706A257.40000000000003,257.40000000000003 0 0,1 200.460040609559,161.4637176545058Q 0,0 -189.28168058123188,174.43395711943396A257.40000000000003,257.40000000000003 0 0,1 -196.39444892837864,166.38503667733616Q 0,0 207.02194324438327,152.9597169692706Z" style="fill: url(&quot;#linkGrad-7-13&quot;); opacity: 0.8;"></path><path class="chord" d="M250.5393463777319,-59.03216001993235A257.40000000000003,257.40000000000003 0 0,1 252.55634513523646,-49.69962305622995Q 0,0 104.28316343778197,235.32909259887288A257.40000000000003,257.40000000000003 0 0,1 95.48360753660904,239.03481062764652Q 0,0 250.5393463777319,-59.03216001993235Z" style="fill: url(&quot;#linkGrad-3-9&quot;); opacity: 0.8;" data-original-title="" title=""></path><path class="chord" d="M241.82595655224472,-88.17577182872785A257.40000000000003,257.40000000000003 0 0,1 244.56018361444555,-80.28123436064429Q 0,0 -257.3311314349103,-5.95388901718489A257.40000000000003,257.40000000000003 0 0,1 -257.00235728119753,-14.302040130964336Q 0,0 241.82595655224472,-88.17577182872785Z" style="fill: url(&quot;#linkGrad-3-15&quot;); opacity: 0.8;"></path><path class="chord" d="M179.7712114997151,184.22017130576316A257.40000000000003,257.40000000000003 0 0,1 173.6979333468144,189.95733192231785Q 0,0 -25.361269751131992,-256.1475473171866A257.40000000000003,257.40000000000003 0 0,1 -17.035034707442097,-256.8356820858742Q 0,0 179.7712114997151,184.22017130576316Z" style="fill: url(&quot;#linkGrad-8-22&quot;); opacity: 0.8;"></path><path class="chord" d="M-207.1294643783077,152.81408634793908A257.40000000000003,257.40000000000003 0 0,1 -211.9797053006372,146.01152194486235Q 0,0 -84.17834669466798,-243.2463071615935A257.40000000000003,257.40000000000003 0 0,1 -76.23981957882839,-245.85005574656213Q 0,0 -207.1294643783077,152.81408634793908Z" style="fill: url(&quot;#linkGrad-13-20&quot;); opacity: 0.8;"></path><path class="chord" d="M78.44201219685368,-245.15629855769293A257.40000000000003,257.40000000000003 0 0,1 86.35686447633024,-242.48144662595683Q 0,0 -251.61847532721288,54.248528772758384A257.40000000000003,257.40000000000003 0 0,1 -253.24648749845625,46.054061381101384Q 0,0 78.44201219685368,-245.15629855769293Z" style="fill: url(&quot;#linkGrad-1-14&quot;); opacity: 0.8;"></path><path class="chord" d="M248.64655407309556,-66.55562446236364A257.40000000000003,257.40000000000003 0 0,1 250.5393463777319,-59.03216001993235Q 0,0 72.04036025990149,247.11322605968226A257.40000000000003,257.40000000000003 0 0,1 64.56061318980333,249.17200329201634Q 0,0 248.64655407309556,-66.55562446236364Z" style="fill: url(&quot;#linkGrad-3-10&quot;); opacity: 0.8;"></path><path class="chord" d="M249.02504732600875,65.12515492710266A257.40000000000003,257.40000000000003 0 0,1 246.94932375914414,72.60021690671066Q 0,0 213.55706746723595,143.69460301206325A257.40000000000003,257.40000000000003 0 0,1 209.1296772405168,150.0651128586431Q 0,0 249.02504732600875,65.12515492710266Z" style="fill: url(&quot;#linkGrad-5-7&quot;); opacity: 0.8;"></path><path class="chord" d="M-255.70068848782276,29.528256075383794A257.40000000000003,257.40000000000003 0 0,1 -256.42316291524406,22.403605079143333Q 0,0 -254.61164733684626,-37.784507941978546A257.40000000000003,257.40000000000003 0 0,1 -253.46199951893965,-44.85281261928911Q 0,0 -255.70068848782276,29.528256075383794Z" style="fill: url(&quot;#linkGrad-14-16&quot;); opacity: 0.8;"></path><path class="chord" d="M-112.58963141500398,-231.46994383252778A257.40000000000003,257.40000000000003 0 0,1 -106.10689902840808,-234.51244312098927Q 0,0 -94.25355594350076,-239.52249830027532A257.40000000000003,257.40000000000003 0 0,1 -87.5539094009826,-242.05179806934825Q 0,0 -112.58963141500398,-231.46994383252778Z" style="fill: url(&quot;#linkGrad-19-20&quot;); opacity: 0.8;"></path><path class="chord" d="M173.6979333468144,189.95733192231785A257.40000000000003,257.40000000000003 0 0,1 168.34637219331157,194.71584159834308Q 0,0 -257.3971700758421,1.2069950074598181A257.40000000000003,257.40000000000003 0 0,1 -257.3311314349103,-5.95388901718489Q 0,0 173.6979333468144,189.95733192231785Z" style="fill: url(&quot;#linkGrad-8-15&quot;); opacity: 0.8;"></path><path class="chord" d="M45.12131394193883,-253.4143386396141A257.40000000000003,257.40000000000003 0 0,1 52.153471799915586,-252.061054864125Q 0,0 64.68609566826707,-249.13945698583316A257.40000000000003,257.40000000000003 0 0,1 71.59176072026952,-247.24356371192292Q 0,0 45.12131394193883,-253.4143386396141Z" style="fill: url(&quot;#linkGrad-0-1&quot;); opacity: 0.8;"></path><path class="chord" d="M-254.78029618209428,36.63005156103837A257.40000000000003,257.40000000000003 0 0,1 -255.70068848782276,29.528256075383794Q 0,0 -238.86612969013586,-95.90480742306515A257.40000000000003,257.40000000000003 0 0,1 -236.10575290723244,-102.51260139177481Q 0,0 -254.78029618209428,36.63005156103837Z" style="fill: url(&quot;#linkGrad-14-18&quot;); opacity: 0.8;" data-original-title="" title=""></path><path class="chord" d="M71.59176072026952,-247.24356371192292A257.40000000000003,257.40000000000003 0 0,1 78.44201219685368,-245.15629855769293Q 0,0 -45.198347043954044,-253.40061054483337A257.40000000000003,257.40000000000003 0 0,1 -38.131616393524766,-254.55989438876085Q 0,0 71.59176072026952,-247.24356371192292Z" style="fill: url(&quot;#linkGrad-1-21&quot;); opacity: 0.8;"></path><path class="chord" d="M-234.65689381821068,-105.78706056786444A257.40000000000003,257.40000000000003 0 0,1 -228.95813303452525,-117.6134912216479Q 0,0 35.306533332729956,254.967073764486A257.40000000000003,257.40000000000003 0 0,1 35.306533332729956,254.967073764486Q 0,0 -234.65689381821068,-105.78706056786444Z" style="fill: url(&quot;#linkGrad-18-10&quot;); opacity: 0.8;" data-original-title="" title=""></path><path class="chord" d="M20.2696804733542,-256.600662613151A257.40000000000003,257.40000000000003 0 0,1 26.21301659456844,-256.06178504613473Q 0,0 -253.24648749845625,46.054061381101384A257.40000000000003,257.40000000000003 0 0,1 -254.24609748116947,40.17065988499189Q 0,0 20.2696804733542,-256.600662613151Z" style="fill: url(&quot;#linkGrad-0-14&quot;); opacity: 0.8;"></path><path class="chord" d="M207.40646251434416,-152.4379195190159A257.40000000000003,257.40000000000003 0 0,1 211.9061425344582,-146.11826291112928Q 0,0 209.1296772405168,150.0651128586431A257.40000000000003,257.40000000000003 0 0,1 207.02194324438327,152.9597169692706Q 0,0 207.40646251434416,-152.4379195190159Z" style="fill: url(&quot;#linkGrad-2-7&quot;); opacity: 0.8;"></path><path class="chord" d="M241.3966529580922,89.3443671455028A257.40000000000003,257.40000000000003 0 0,1 237.45892253873623,99.33790870932653Q 0,0 253.54298457400506,44.39273559160152A257.40000000000003,257.40000000000003 0 0,1 253.54298457400506,44.39273559160152Q 0,0 241.3966529580922,89.3443671455028Z" style="fill: url(&quot;#linkGrad-6-4&quot;); opacity: 0.8;"></path><path class="chord" d="M95.48360753660904,239.03481062764652A257.40000000000003,257.40000000000003 0 0,1 91.0337971323008,240.76463149656163Q 0,0 -257.330508760951,5.980740826197976A257.40000000000003,257.40000000000003 0 0,1 -257.3971700758421,1.2069950074598181Q 0,0 95.48360753660904,239.03481062764652Z" style="fill: url(&quot;#linkGrad-9-15&quot;); opacity: 0.8;"></path><path class="chord" d="M-246.3031001220373,-74.76324545037943A257.40000000000003,257.40000000000003 0 0,1 -244.8740970111211,-79.31857672064011Q 0,0 -240.60379158160927,-91.4580530984207A257.40000000000003,257.40000000000003 0 0,1 -238.86612969013586,-95.90480742306515Q 0,0 -246.3031001220373,-74.76324545037943Z" style="fill: url(&quot;#linkGrad-17-18&quot;); opacity: 0.8;" data-original-title="" title=""></path><path class="chord" d="M11.9314222747588,-257.1233189784649A257.40000000000003,257.40000000000003 0 0,1 16.698244249270147,-256.8577984780523Q 0,0 -247.6473695559174,-70.18219398134322A257.40000000000003,257.40000000000003 0 0,1 -246.3031001220373,-74.76324545037943Q 0,0 11.9314222747588,-257.1233189784649Z" style="fill: url(&quot;#linkGrad-0-17&quot;); opacity: 0.8;"></path><path class="chord" d="M202.7183764798692,-158.6191030026523A257.40000000000003,257.40000000000003 0 0,1 205.2658880339612,-155.3083230533036Q 0,0 -17.035034707442097,-256.8356820858742A257.40000000000003,257.40000000000003 0 0,1 -12.864638170272606,-257.0783170256644Q 0,0 202.7183764798692,-158.6191030026523Z" style="fill: url(&quot;#linkGrad-2-22&quot;); opacity: 0.8;"></path><path class="chord" d="M254.1359830081454,40.861499488927926A257.40000000000003,257.40000000000003 0 0,1 253.54298457400506,44.39273559160152Q 0,0 75.47088865563506,246.08718976315845A257.40000000000003,257.40000000000003 0 0,1 72.04036025990149,247.11322605968226Q 0,0 254.1359830081454,40.861499488927926Z" style="fill: url(&quot;#linkGrad-4-10&quot;); opacity: 0.8;"></path><path class="chord" d="M-115.79862857335567,-229.88135553047803A257.40000000000003,257.40000000000003 0 0,1 -112.58963141500398,-231.46994383252778Q 0,0 -48.71893403574408,-252.7473550136991A257.40000000000003,257.40000000000003 0 0,1 -45.198347043954044,-253.40061054483337Q 0,0 -115.79862857335567,-229.88135553047803Z" style="fill: url(&quot;#linkGrad-19-21&quot;); opacity: 0.8;"></path><path class="chord" d="M91.0337971323008,240.76463149656163A257.40000000000003,257.40000000000003 0 0,1 87.67580300957341,242.00767253669147Q 0,0 -14.444880960060834,256.99436844812317A257.40000000000003,257.40000000000003 0 0,1 -18.018434987015205,256.76856505541855Q 0,0 91.0337971323008,240.76463149656163Z" style="fill: url(&quot;#linkGrad-9-11&quot;); opacity: 0.8;"></path><path class="chord" d="M-226.7373685880704,-121.83975412712186A257.40000000000003,257.40000000000003 0 0,1 -225.02056323138473,-124.9820231994602Q 0,0 -87.5539094009826,-242.05179806934825A257.40000000000003,257.40000000000003 0 0,1 -84.17834669466798,-243.2463071615935Q 0,0 -226.7373685880704,-121.83975412712186Z" style="fill: url(&quot;#linkGrad-18-20&quot;); opacity: 0.8;" data-original-title="" title=""></path><path class="chord" d="M256.97443508748177,-14.795259763506483A257.40000000000003,257.40000000000003 0 0,1 257.15538218655394,-11.219153822254787Q 0,0 249.90688376543156,61.654760129702154A257.40000000000003,257.40000000000003 0 0,1 249.02504732600875,65.12515492710266Q 0,0 256.97443508748177,-14.795259763506483Z" style="fill: url(&quot;#linkGrad-3-5&quot;); opacity: 0.8;"></path><path class="chord" d="M16.698244249270147,-256.8577984780523A257.40000000000003,257.40000000000003 0 0,1 20.2696804733542,-256.600662613151Q 0,0 -257.00235728119753,-14.302040130964336A257.40000000000003,257.40000000000003 0 0,1 -256.7785401203831,-17.87571910846689Q 0,0 16.698244249270147,-256.8577984780523Z" style="fill: url(&quot;#linkGrad-0-15&quot;); opacity: 0.8;"></path><path class="chord" d="M41.59179688896968,-254.01748449968304A257.40000000000003,257.40000000000003 0 0,1 45.12131394193883,-253.4143386396141Q 0,0 182.31643458890747,181.70161716063137A257.40000000000003,257.40000000000003 0 0,1 179.7712114997151,184.22017130576316Q 0,0 41.59179688896968,-254.01748449968304Z" style="fill: url(&quot;#linkGrad-0-8&quot;); opacity: 0.8;"></path><path class="chord" d="M-256.7785401203831,-17.87571910846689A257.40000000000003,257.40000000000003 0 0,1 -256.5050325158983,-21.44593887005128Q 0,0 -255.11261780891778,-34.23904546977113A257.40000000000003,257.40000000000003 0 0,1 -254.61164733684626,-37.784507941978546Q 0,0 -256.7785401203831,-17.87571910846689Z" style="fill: url(&quot;#linkGrad-15-16&quot;); opacity: 0.8;"></path><path class="chord" d="M-213.9903058777424,143.04862456643986A257.40000000000003,257.40000000000003 0 0,1 -215.95949616707492,140.0580451643645Q 0,0 -236.10575290723244,-102.51260139177481A257.40000000000003,257.40000000000003 0 0,1 -234.65689381821068,-105.78706056786444Q 0,0 -213.9903058777424,143.04862456643986Z" style="fill: url(&quot;#linkGrad-13-18&quot;); opacity: 0.8;" data-original-title="" title=""></path><path class="chord" d="M-211.9797053006372,146.01152194486235A257.40000000000003,257.40000000000003 0 0,1 -213.9903058777424,143.04862456643986Q 0,0 -145.5731127107133,-212.2810138842237A257.40000000000003,257.40000000000003 0 0,1 -142.60606636162524,-214.28548676208513Q 0,0 -211.9797053006372,146.01152194486235Z" style="fill: url(&quot;#linkGrad-13-19&quot;); opacity: 0.8;"></path><path class="chord" d="M254.67980237248346,37.322356082015844A257.40000000000003,257.40000000000003 0 0,1 254.1359830081454,40.861499488927926Q 0,0 -196.39444892837864,166.38503667733616A257.40000000000003,257.40000000000003 0 0,1 -198.68996576920927,163.6369686306565Q 0,0 254.67980237248346,37.322356082015844Z" style="fill: url(&quot;#linkGrad-4-13&quot;); opacity: 0.8;" data-original-title="" title=""></path><path class="chord" d="M-254.24609748116947,40.17065988499189A257.40000000000003,257.40000000000003 0 0,1 -254.78029618209428,36.63005156103837Q 0,0 -148.51198851037114,-210.23546149186015A257.40000000000003,257.40000000000003 0 0,1 -145.5731127107133,-212.2810138842237Q 0,0 -254.24609748116947,40.17065988499189Z" style="fill: url(&quot;#linkGrad-14-19&quot;); opacity: 0.8;"></path><path class="chord" d="M22.261080499290344,256.4355753303432A257.40000000000003,257.40000000000003 0 0,1 18.691748059424672,256.7204287829136Q 0,0 -257.2224143034248,9.55978974231673A257.40000000000003,257.40000000000003 0 0,1 -257.330508760951,5.980740826197976Q 0,0 22.261080499290344,256.4355753303432Z" style="fill: url(&quot;#linkGrad-10-15&quot;); opacity: 0.8;"></path><path class="chord" d="M-228.95813303452525,-117.6134912216479A257.40000000000003,257.40000000000003 0 0,1 -226.7373685880704,-121.83975412712186Q 0,0 11.9314222747588,-257.1233189784649A257.40000000000003,257.40000000000003 0 0,1 11.9314222747588,-257.1233189784649Q 0,0 -228.95813303452525,-117.6134912216479Z" style="fill: url(&quot;#linkGrad-18-0&quot;); opacity: 0.8;" data-original-title="" title=""></path><path class="chord" d="M-62.75005757514378,249.63411280174864A257.40000000000003,257.40000000000003 0 0,1 -67.36923564294246,248.4273456946431Q 0,0 -234.65689381821068,-105.78706056786444A257.40000000000003,257.40000000000003 0 0,1 -234.65689381821068,-105.78706056786444Q 0,0 -62.75005757514378,249.63411280174864Z" style="fill: url(&quot;#linkGrad-11-18&quot;); opacity: 0.8;"></path><path class="chord" d="M253.54298457400506,44.39273559160152A257.40000000000003,257.40000000000003 0 0,1 252.67601892808477,49.087569288508966Q 0,0 249.90688376543156,61.654760129702154A257.40000000000003,257.40000000000003 0 0,1 249.90688376543156,61.654760129702154Q 0,0 253.54298457400506,44.39273559160152Z" style="fill: url(&quot;#linkGrad-4-5&quot;); opacity: 0.8;"></path><path class="chord" d="M246.94932375914414,72.60021690671066A257.40000000000003,257.40000000000003 0 0,1 245.56032724931464,77.16790577182671Q 0,0 241.3966529580922,89.3443671455028A257.40000000000003,257.40000000000003 0 0,1 241.3966529580922,89.3443671455028Q 0,0 246.94932375914414,72.60021690671066Z" style="fill: url(&quot;#linkGrad-5-6&quot;); opacity: 0.8;"></path><path class="chord" d="M205.2658880339612,-155.3083230533036A257.40000000000003,257.40000000000003 0 0,1 207.40646251434416,-152.4379195190159Q 0,0 182.31643458890747,181.70161716063137A257.40000000000003,257.40000000000003 0 0,1 182.31643458890747,181.70161716063137Q 0,0 205.2658880339612,-155.3083230533036Z" style="fill: url(&quot;#linkGrad-2-8&quot;); opacity: 0.8;"></path><path class="chord" d="M-76.23981957882839,-245.85005574656213A257.40000000000003,257.40000000000003 0 0,1 -72.81251546516032,-246.88681129545134Q 0,0 220.47191362931008,132.84161735175482A257.40000000000003,257.40000000000003 0 0,1 220.47191362931008,132.84161735175482Q 0,0 -76.23981957882839,-245.85005574656213Z" style="fill: url(&quot;#linkGrad-20-6&quot;); opacity: 0.8;"></path><path class="chord" d="M222.29849094969788,129.76186235364807A257.40000000000003,257.40000000000003 0 0,1 220.47191362931008,132.84161735175482Q 0,0 -45.198347043954044,-253.40061054483337A257.40000000000003,257.40000000000003 0 0,1 -45.198347043954044,-253.40061054483337Q 0,0 222.29849094969788,129.76186235364807Z" style="fill: url(&quot;#linkGrad-6-21&quot;); opacity: 0.8;"></path></g></svg>