<?xml version="1.0" encoding="UTF-8" standalone="no"?>
<svg
   xmlns:dc="http://purl.org/dc/elements/1.1/"
   xmlns:cc="http://creativecommons.org/ns#"
   xmlns:rdf="http://www.w3.org/1999/02/22-rdf-syntax-ns#"
   xmlns:svg="http://www.w3.org/2000/svg"
   xmlns="http://www.w3.org/2000/svg"
   xmlns:sodipodi="http://sodipodi.sourceforge.net/DTD/sodipodi-0.dtd"
   xmlns:inkscape="http://www.inkscape.org/namespaces/inkscape"
   width="960"
   height="960"
   id="svg2"
   version="1.1"
   inkscape:version="0.91 r13725"
   sodipodi:docname="semantics.svg">
  <metadata
     id="metadata502">
    <rdf:RDF>
      <cc:Work
         rdf:about="">
        <dc:format>image/svg+xml</dc:format>
        <dc:type
           rdf:resource="http://purl.org/dc/dcmitype/StillImage" />
      </cc:Work>
    </rdf:RDF>
  </metadata>
  <defs
     id="defs500" />
  <sodipodi:namedview
     pagecolor="#ffffff"
     bordercolor="#666666"
     borderopacity="1"
     objecttolerance="10"
     gridtolerance="10"
     guidetolerance="10"
     inkscape:pageopacity="0"
     inkscape:pageshadow="2"
     inkscape:window-width="1538"
     inkscape:window-height="973"
     id="namedview498"
     showgrid="false"
     inkscape:zoom="0.9"
     inkscape:cx="467.70964"
     inkscape:cy="504.46048"
     inkscape:window-x="0"
     inkscape:window-y="0"
     inkscape:window-maximized="0"
     inkscape:current-layer="g4" />
  <g
     transform="translate(480,480)"
     id="g4">
    <path
       d="M 0,-440 A 440,440 0 0 1 428.24697,101.01749 L 399.04831,94.129933 A 410,410 0 0 0 0,-410 Z"
       style="fill:#000000;stroke:#000000"
       id="path10"
       inkscape:connector-curvature="0" />
    <g
       class="group-tick"
       transform="matrix(0,-1,1,0,0,-440)"
       id="g12">
      <line
         x2="6"
         id="line14"
         x1="0"
         y1="0"
         y2="0" />
      <text
         x="8"
         dy="0"
         id="text16">0k</text>
    </g>
    <g
       class="group-tick"
       transform="matrix(0.06079434,-0.99815031,0.99815031,0.06079434,26.74951,-439.18614)"
       id="g18">
      <line
         x2="6"
         id="line20"
         x1="0"
         y1="0"
         y2="0" />
    </g>
    <g
       class="group-tick"
       transform="matrix(0.12136378,-0.9926081,0.9926081,0.12136378,53.400064,-436.74756)"
       id="g22">
      <line
         x2="6"
         id="line24"
         x1="0"
         y1="0"
         y2="0" />
    </g>
    <g
       class="group-tick"
       transform="matrix(0.18148425,-0.98339385,0.98339385,0.18148425,79.853072,-432.69329)"
       id="g26">
      <line
         x2="6"
         id="line28"
         x1="0"
         y1="0"
         y2="0" />
    </g>
    <g
       class="group-tick"
       transform="matrix(0.24093335,-0.97054166,0.97054166,0.24093335,106.01067,-427.03833)"
       id="g30">
      <line
         x2="6"
         id="line32"
         x1="0"
         y1="0"
         y2="0" />
    </g>
    <g
       class="group-tick"
       transform="matrix(0.29949114,-0.95409908,0.95409908,0.29949114,131.7761,-419.8036)"
       id="g34">
      <line
         x2="6"
         id="line36"
         x1="0"
         y1="0"
         y2="0" />
      <text
         x="8"
         dy="0"
         id="text38">5k</text>
    </g>
    <g
       class="group-tick"
       transform="matrix(0.356941,-0.93412693,0.93412693,0.356941,157.05404,-411.01585)"
       id="g40">
      <line
         x2="6"
         id="line42"
         x1="0"
         y1="0"
         y2="0" />
    </g>
    <g
       class="group-tick"
       transform="matrix(0.4130704,-0.9106991,0.9106991,0.4130704,181.75098,-400.7076)"
       id="g44">
      <line
         x2="6"
         id="line46"
         x1="0"
         y1="0"
         y2="0" />
    </g>
    <g
       class="group-tick"
       transform="matrix(0.4676717,-0.88390225,0.88390225,0.4676717,205.77555,-388.91699)"
       id="g48">
      <line
         x2="6"
         id="line50"
         x1="0"
         y1="0"
         y2="0" />
    </g>
    <g
       class="group-tick"
       transform="matrix(0.52054291,-0.85383551,0.85383551,0.52054291,229.03888,-375.68762)"
       id="g52">
      <line
         x2="6"
         id="line54"
         x1="0"
         y1="0"
         y2="0" />
    </g>
    <g
       class="group-tick"
       transform="matrix(0.57148844,-0.82061012,0.82061012,0.57148844,251.45491,-361.06845)"
       id="g56">
      <line
         x2="6"
         id="line58"
         x1="0"
         y1="0"
         y2="0" />
      <text
         x="8"
         dy="0"
         id="text60">10k</text>
    </g>
    <g
       class="group-tick"
       transform="matrix(0.62031982,-0.78434898,0.78434898,0.62031982,272.94072,-345.11355)"
       id="g62">
      <line
         x2="6"
         id="line64"
         x1="0"
         y1="0"
         y2="0" />
    </g>
    <g
       class="group-tick"
       transform="matrix(0.6668564,-0.74518625,0.74518625,0.6668564,293.41682,-327.88195)"
       id="g66">
      <line
         x2="6"
         id="line68"
         x1="0"
         y1="0"
         y2="0" />
    </g>
    <g
       class="group-tick"
       transform="matrix(0.71092603,-0.70326679,0.70326679,0.71092603,312.80745,-309.43739)"
       id="g70">
      <line
         x2="6"
         id="line72"
         x1="0"
         y1="0"
         y2="0" />
    </g>
    <g
       class="group-tick"
       transform="matrix(0.75236568,-0.65874569,0.65874569,0.75236568,331.0409,-289.8481)"
       id="g74">
      <line
         x2="6"
         id="line76"
         x1="0"
         y1="0"
         y2="0" />
    </g>
    <g
       class="group-tick"
       transform="matrix(0.79102205,-0.61178764,0.61178764,0.79102205,348.0497,-269.18656)"
       id="g78">
      <line
         x2="6"
         id="line80"
         x1="0"
         y1="0"
         y2="0" />
      <text
         x="8"
         dy="0"
         id="text82">15k</text>
    </g>
    <g
       class="group-tick"
       transform="matrix(0.82675214,-0.56256636,0.56256636,0.82675214,363.77094,-247.5292)"
       id="g84">
      <line
         x2="6"
         id="line86"
         x1="0"
         y1="0"
         y2="0" />
    </g>
    <g
       class="group-tick"
       transform="matrix(0.85942375,-0.51126393,0.51126393,0.85942375,378.14645,-224.95613)"
       id="g88">
      <line
         x2="6"
         id="line90"
         x1="0"
         y1="0"
         y2="0" />
    </g>
    <g
       class="group-tick"
       transform="matrix(0.88891604,-0.45807015,0.45807015,0.88891604,391.12306,-201.55087)"
       id="g92">
      <line
         x2="6"
         id="line94"
         x1="0"
         y1="0"
         y2="0" />
    </g>
    <g
       class="group-tick"
       transform="matrix(0.9151199,-0.4031818,0.4031818,0.9151199,402.65276,-177.39999)"
       id="g96">
      <line
         x2="6"
         id="line98"
         x1="0"
         y1="0"
         y2="0" />
    </g>
    <g
       class="group-tick"
       transform="matrix(0.93793839,-0.34680193,0.34680193,0.93793839,412.69289,-152.59285)"
       id="g100">
      <line
         x2="6"
         id="line102"
         x1="0"
         y1="0"
         y2="0" />
      <text
         x="8"
         dy="0"
         id="text104">20k</text>
    </g>
    <g
       class="group-tick"
       transform="matrix(0.95728709,-0.28913911,0.28913911,0.95728709,421.20632,-127.22121)"
       id="g106">
      <line
         x2="6"
         id="line108"
         x1="0"
         y1="0"
         y2="0" />
    </g>
    <g
       class="group-tick"
       transform="matrix(0.97309443,-0.23040665,0.23040665,0.97309443,428.16155,-101.37893)"
       id="g110">
      <line
         x2="6"
         id="line112"
         x1="0"
         y1="0"
         y2="0" />
    </g>
    <g
       class="group-tick"
       transform="matrix(0.98530193,-0.17082184,0.17082184,0.98530193,433.53285,-75.161609)"
       id="g114">
      <line
         x2="6"
         id="line116"
         x1="0"
         y1="0"
         y2="0" />
    </g>
    <g
       class="group-tick"
       transform="matrix(0.99386443,-0.11060509,0.11060509,0.99386443,437.30035,-48.666239)"
       id="g118">
      <line
         x2="6"
         id="line120"
         x1="0"
         y1="0"
         y2="0" />
    </g>
    <g
       class="group-tick"
       transform="matrix(0.99875026,-0.04997917,0.04997917,0.99875026,439.45011,-21.990834)"
       id="g122">
      <line
         x2="6"
         id="line124"
         x1="0"
         y1="0"
         y2="0" />
      <text
         x="8"
         dy="0"
         id="text126">25k</text>
    </g>
    <g
       class="group-tick"
       transform="matrix(0.99994134,0.01083164,-0.01083164,0.99994134,439.97419,4.7659222)"
       id="g128">
      <line
         x2="6"
         id="line130"
         x1="0"
         y1="0"
         y2="0" />
    </g>
    <g
       class="group-tick"
       transform="matrix(0.99743326,0.07160238,-0.07160238,0.99743326,438.87063,31.505048)"
       id="g132">
      <line
         x2="6"
         id="line134"
         x1="0"
         y1="0"
         y2="0" />
    </g>
    <g
       class="group-tick"
       transform="matrix(0.9912353,0.13210824,-0.13210824,0.9912353,436.14353,58.127625)"
       id="g136">
      <line
         x2="6"
         id="line138"
         x1="0"
         y1="0"
         y2="0" />
    </g>
    <g
       class="group-tick"
       transform="matrix(0.98137039,0.19212538,-0.19212538,0.98137039,431.80297,84.535166)"
       id="g140">
      <line
         x2="6"
         id="line142"
         x1="0"
         y1="0"
         y2="0" />
    </g>
    <path
       d="M 422.663,122.29467 A 440,440 0 0 1 25.732551,439.2469 L 23.978059,409.29824 A 410,410 0 0 0 393.84507,113.9564 Z"
       style="fill:#ffdd89;stroke:#b39b60"
       id="path146"
       inkscape:connector-curvature="0" />
    <g
       class="group-tick"
       transform="matrix(0.96059773,0.27794243,-0.27794243,0.96059773,422.663,122.29467)"
       id="g148">
      <line
         x2="6"
         id="line150"
         x1="0"
         y1="0"
         y2="0" />
      <text
         x="8"
         dy="0"
         id="text152">0k</text>
    </g>
    <g
       class="group-tick"
       transform="matrix(0.9419236,0.33582724,-0.33582724,0.9419236,414.44638,147.76398)"
       id="g154">
      <line
         x2="6"
         id="line156"
         x1="0"
         y1="0"
         y2="0" />
    </g>
    <g
       class="group-tick"
       transform="matrix(0.91976494,0.39246969,-0.39246969,0.91976494,404.69657,172.68666)"
       id="g158">
      <line
         x2="6"
         id="line160"
         x1="0"
         y1="0"
         y2="0" />
    </g>
    <g
       class="group-tick"
       transform="matrix(0.89420373,0.44766024,-0.44766024,0.89420373,393.44964,196.97051)"
       id="g162">
      <line
         x2="6"
         id="line164"
         x1="0"
         y1="0"
         y2="0" />
    </g>
    <g
       class="group-tick"
       transform="matrix(0.86533452,0.50119474,-0.50119474,0.86533452,380.74719,220.52569)"
       id="g166">
      <line
         x2="6"
         id="line168"
         x1="0"
         y1="0"
         y2="0" />
    </g>
    <g
       class="group-tick"
       transform="matrix(0.83326412,0.55287513,-0.55287513,0.83326412,366.63621,243.26506)"
       id="g170">
      <line
         x2="6"
         id="line172"
         x1="0"
         y1="0"
         y2="0" />
      <text
         x="8"
         dy="0"
         id="text174">5k</text>
    </g>
    <g
       class="group-tick"
       transform="matrix(0.79811116,0.60251023,-0.60251023,0.79811116,351.16891,265.1045)"
       id="g176">
      <line
         x2="6"
         id="line178"
         x1="0"
         y1="0"
         y2="0" />
    </g>
    <g
       class="group-tick"
       transform="matrix(0.76000569,0.64991641,-0.64991641,0.76000569,334.40251,285.96322)"
       id="g180">
      <line
         x2="6"
         id="line182"
         x1="0"
         y1="0"
         y2="0" />
    </g>
    <g
       class="group-tick"
       transform="matrix(0.71908868,0.69491832,-0.69491832,0.71908868,316.39902,305.76406)"
       id="g184">
      <line
         x2="6"
         id="line186"
         x1="0"
         y1="0"
         y2="0" />
    </g>
    <g
       class="group-tick"
       transform="matrix(0.67551149,0.73734946,-0.73734946,0.67551149,297.22506,324.43376)"
       id="g188">
      <line
         x2="6"
         id="line190"
         x1="0"
         y1="0"
         y2="0" />
    </g>
    <g
       class="group-tick"
       transform="matrix(0.62943533,0.77705287,-0.77705287,0.62943533,276.95155,341.90326)"
       id="g192">
      <line
         x2="6"
         id="line194"
         x1="0"
         y1="0"
         y2="0" />
      <text
         x="8"
         dy="0"
         id="text196">10k</text>
    </g>
    <g
       class="group-tick"
       transform="matrix(0.58103065,0.81388167,-0.81388167,0.58103065,255.65349,358.10794)"
       id="g198">
      <line
         x2="6"
         id="line200"
         x1="0"
         y1="0"
         y2="0" />
    </g>
    <g
       class="group-tick"
       transform="matrix(0.53047653,0.84769962,-0.84769962,0.53047653,233.40967,372.98783)"
       id="g202">
      <line
         x2="6"
         id="line204"
         x1="0"
         y1="0"
         y2="0" />
    </g>
    <g
       class="group-tick"
       transform="matrix(0.47795997,0.87838162,-0.87838162,0.47795997,210.30239,386.48791)"
       id="g206">
      <line
         x2="6"
         id="line208"
         x1="0"
         y1="0"
         y2="0" />
    </g>
    <g
       class="group-tick"
       transform="matrix(0.42367526,0.90581415,-0.90581415,0.42367526,186.41712,398.55823)"
       id="g210">
      <line
         x2="6"
         id="line212"
         x1="0"
         y1="0"
         y2="0" />
    </g>
    <g
       class="group-tick"
       transform="matrix(0.36782322,0.92989573,-0.92989573,0.36782322,161.84222,409.15412)"
       id="g214">
      <line
         x2="6"
         id="line216"
         x1="0"
         y1="0"
         y2="0" />
      <text
         x="8"
         dy="0"
         id="text218">15k</text>
    </g>
    <g
       class="group-tick"
       transform="matrix(0.31061047,0.95053729,-0.95053729,0.31061047,136.66861,418.23641)"
       id="g220">
      <line
         x2="6"
         id="line222"
         x1="0"
         y1="0"
         y2="0" />
    </g>
    <g
       class="group-tick"
       transform="matrix(0.25224865,0.96766245,-0.96766245,0.25224865,110.9894,425.77148)"
       id="g224">
      <line
         x2="6"
         id="line226"
         x1="0"
         y1="0"
         y2="0" />
    </g>
    <g
       class="group-tick"
       transform="matrix(0.19295366,0.98120787,-0.98120787,0.19295366,84.899611,431.73146)"
       id="g228">
      <line
         x2="6"
         id="line230"
         x1="0"
         y1="0"
         y2="0" />
    </g>
    <g
       class="group-tick"
       transform="matrix(0.13294487,0.99112343,-0.99112343,0.13294487,58.495744,436.09431)"
       id="g232">
      <line
         x2="6"
         id="line234"
         x1="0"
         y1="0"
         y2="0" />
    </g>
    <g
       class="group-tick"
       transform="matrix(0.07244427,0.99737246,-0.99737246,0.07244427,31.875478,438.84388)"
       id="g236">
      <line
         x2="6"
         id="line238"
         x1="0"
         y1="0"
         y2="0" />
      <text
         x="8"
         dy="0"
         id="text240">20k</text>
    </g>
    <path
       d="M 3.7471969,439.98404 A 440,440 0 0 1 -283.18436,-336.75899 l 19.30802,22.96084 A 410,410 0 0 0 3.4917062,409.98513 Z"
       style="fill:#957244;stroke:#685030"
       id="path244"
       inkscape:connector-curvature="0" />
    <g
       class="group-tick"
       transform="matrix(0.00851636,0.99996374,-0.99996374,0.00851636,3.7471969,439.98404)"
       id="g246">
      <line
         x2="6"
         id="line248"
         x1="0"
         y1="0"
         y2="0" />
      <text
         x="8"
         dy="0"
         id="text250">0k</text>
    </g>
    <g
       class="group-tick"
       transform="matrix(-0.05229153,0.99863186,-0.99863186,-0.05229153,-23.008275,439.39802)"
       id="g252">
      <line
         x2="6"
         id="line254"
         x1="0"
         y1="0"
         y2="0" />
    </g>
    <g
       class="group-tick"
       transform="matrix(-0.11290598,0.99360568,-0.99360568,-0.11290598,-49.67863,437.1865)"
       id="g256">
      <line
         x2="6"
         id="line258"
         x1="0"
         y1="0"
         y2="0" />
    </g>
    <g
       class="group-tick"
       transform="matrix(-0.17310274,0.98490377,-0.98490377,-0.17310274,-76.165205,433.35766)"
       id="g260">
      <line
         x2="6"
         id="line262"
         x1="0"
         y1="0"
         y2="0" />
    </g>
    <g
       class="group-tick"
       transform="matrix(-0.23265913,0.97255834,-0.97255834,-0.23265913,-102.37002,427.92567)"
       id="g264">
      <line
         x2="6"
         id="line266"
         x1="0"
         y1="0"
         y2="0" />
    </g>
    <g
       class="group-tick"
       transform="matrix(-0.29135483,0.95661506,-0.95661506,-0.29135483,-128.19612,420.91062)"
       id="g268">
      <line
         x2="6"
         id="line270"
         x1="0"
         y1="0"
         y2="0" />
      <text
         x="8"
         dy="0"
         transform="matrix(-1,0,0,-1,16,0)"
         style="text-anchor:end"
         id="text272">5k</text>
    </g>
    <g
       class="group-tick"
       transform="matrix(-0.3489727,0.93713289,-0.93713289,-0.3489727,-153.54799,412.33847)"
       id="g274">
      <line
         x2="6"
         id="line276"
         x1="0"
         y1="0"
         y2="0" />
    </g>
    <g
       class="group-tick"
       transform="matrix(-0.40529958,0.91418392,-0.91418392,-0.40529958,-178.33182,402.24093)"
       id="g278">
      <line
         x2="6"
         id="line280"
         x1="0"
         y1="0"
         y2="0" />
    </g>
    <g
       class="group-tick"
       transform="matrix(-0.46012712,0.88785305,-0.88785305,-0.46012712,-202.45593,390.65534)"
       id="g282">
      <line
         x2="6"
         id="line284"
         x1="0"
         y1="0"
         y2="0" />
    </g>
    <g
       class="group-tick"
       transform="matrix(-0.51325247,0.85823767,-0.85823767,-0.51325247,-225.83109,377.62458)"
       id="g286">
      <line
         x2="6"
         id="line288"
         x1="0"
         y1="0"
         y2="0" />
    </g>
    <g
       class="group-tick"
       transform="matrix(-0.5644791,0.82544736,-0.82544736,-0.5644791,-248.37081,363.19684)"
       id="g290">
      <line
         x2="6"
         id="line292"
         x1="0"
         y1="0"
         y2="0" />
      <text
         x="8"
         dy="0"
         transform="matrix(-1,0,0,-1,16,0)"
         style="text-anchor:end"
         id="text294">10k</text>
    </g>
    <g
       class="group-tick"
       transform="matrix(-0.61361752,0.7896034,-0.7896034,-0.61361752,-269.99171,347.4255)"
       id="g296">
      <line
         x2="6"
         id="line298"
         x1="0"
         y1="0"
         y2="0" />
    </g>
    <g
       class="group-tick"
       transform="matrix(-0.66048594,0.75083841,-0.75083841,-0.66048594,-290.61381,330.3689)"
       id="g300">
      <line
         x2="6"
         id="line302"
         x1="0"
         y1="0"
         y2="0" />
    </g>
    <g
       class="group-tick"
       transform="matrix(-0.70491098,0.70929579,-0.70929579,-0.70491098,-310.16083,312.09015)"
       id="g304">
      <line
         x2="6"
         id="line306"
         x1="0"
         y1="0"
         y2="0" />
    </g>
    <g
       class="group-tick"
       transform="matrix(-0.74672828,0.66512921,-0.66512921,-0.74672828,-328.56045,292.65685)"
       id="g308">
      <line
         x2="6"
         id="line310"
         x1="0"
         y1="0"
         y2="0" />
    </g>
    <g
       class="group-tick"
       transform="matrix(-0.78578316,0.61850208,-0.61850208,-0.78578316,-345.74459,272.14091)"
       id="g312">
      <line
         x2="6"
         id="line314"
         x1="0"
         y1="0"
         y2="0" />
      <text
         x="8"
         dy="0"
         transform="matrix(-1,0,0,-1,16,0)"
         style="text-anchor:end"
         id="text316">15k</text>
    </g>
    <g
       class="group-tick"
       transform="matrix(-0.82193114,0.56958687,-0.56958687,-0.82193114,-361.6497,250.61822)"
       id="g318">
      <line
         x2="6"
         id="line320"
         x1="0"
         y1="0"
         y2="0" />
    </g>
    <g
       class="group-tick"
       transform="matrix(-0.85503848,0.51856455,-0.51856455,-0.85503848,-376.21693,228.1684)"
       id="g322">
      <line
         x2="6"
         id="line324"
         x1="0"
         y1="0"
         y2="0" />
    </g>
    <g
       class="group-tick"
       transform="matrix(-0.88498272,0.46562387,-0.46562387,-0.88498272,-389.3924,204.8745)"
       id="g326">
      <line
         x2="6"
         id="line328"
         x1="0"
         y1="0"
         y2="0" />
    </g>
    <g
       class="group-tick"
       transform="matrix(-0.91165307,0.41096067,-0.41096067,-0.91165307,-401.12735,180.82269)"
       id="g330">
      <line
         x2="6"
         id="line332"
         x1="0"
         y1="0"
         y2="0" />
    </g>
    <g
       class="group-tick"
       transform="matrix(-0.93495089,0.35477717,-0.35477717,-0.93495089,-411.37839,156.10196)"
       id="g334">
      <line
         x2="6"
         id="line336"
         x1="0"
         y1="0"
         y2="0" />
      <text
         x="8"
         dy="0"
         transform="matrix(-1,0,0,-1,16,0)"
         style="text-anchor:end"
         id="text338">20k</text>
    </g>
    <g
       class="group-tick"
       transform="matrix(-0.95478996,0.29728122,-0.29728122,-0.95478996,-420.10758,130.80374)"
       id="g340">
      <line
         x2="6"
         id="line342"
         x1="0"
         y1="0"
         y2="0" />
    </g>
    <g
       class="group-tick"
       transform="matrix(-0.97109692,0.23868552,-0.23868552,-0.97109692,-427.28264,105.02163)"
       id="g344">
      <line
         x2="6"
         id="line346"
         x1="0"
         y1="0"
         y2="0" />
    </g>
    <g
       class="group-tick"
       transform="matrix(-0.98381142,0.17920683,-0.17920683,-0.98381142,-432.87703,78.851003)"
       id="g348">
      <line
         x2="6"
         id="line350"
         x1="0"
         y1="0"
         y2="0" />
    </g>
    <g
       class="group-tick"
       transform="matrix(-0.99288644,0.11906518,-0.11906518,-0.99288644,-436.87003,52.38868)"
       id="g352">
      <line
         x2="6"
         id="line354"
         x1="0"
         y1="0"
         y2="0" />
    </g>
    <g
       class="group-tick"
       transform="matrix(-0.9982884,0.05848307,-0.05848307,-0.9982884,-439.2469,25.732551)"
       id="g356">
      <line
         x2="6"
         id="line358"
         x1="0"
         y1="0"
         y2="0" />
      <text
         x="8"
         dy="0"
         transform="matrix(-1,0,0,-1,16,0)"
         style="text-anchor:end"
         id="text360">25k</text>
    </g>
    <g
       class="group-tick"
       transform="matrix(-0.99999732,-0.00231539,0.00231539,-0.99999732,-439.99882,-1.0187723)"
       id="g362">
      <line
         x2="6"
         id="line364"
         x1="0"
         y1="0"
         y2="0" />
    </g>
    <g
       class="group-tick"
       transform="matrix(-0.99800688,-0.06310529,0.06310529,-0.99800688,-439.12303,-27.766327)"
       id="g366">
      <line
         x2="6"
         id="line368"
         x1="0"
         y1="0"
         y2="0" />
    </g>
    <g
       class="group-tick"
       transform="matrix(-0.99232443,-0.12366173,0.12366173,-0.99232443,-436.62275,-54.411163)"
       id="g370">
      <line
         x2="6"
         id="line372"
         x1="0"
         y1="0"
         y2="0" />
    </g>
    <g
       class="group-tick"
       transform="matrix(-0.98297101,-0.18376071,0.18376071,-0.98297101,-432.50724,-80.854712)"
       id="g374">
      <line
         x2="6"
         id="line376"
         x1="0"
         y1="0"
         y2="0" />
    </g>
    <g
       class="group-tick"
       transform="matrix(-0.96998121,-0.24317988,0.24317988,-0.96998121,-426.79173,-106.99915)"
       id="g378">
      <line
         x2="6"
         id="line380"
         x1="0"
         y1="0"
         y2="0" />
      <text
         x="8"
         dy="0"
         transform="matrix(-1,0,0,-1,16,0)"
         style="text-anchor:end"
         id="text382">30k</text>
    </g>
    <g
       class="group-tick"
       transform="matrix(-0.95340309,-0.30169945,0.30169945,-0.95340309,-419.49736,-132.74776)"
       id="g384">
      <line
         x2="6"
         id="line386"
         x1="0"
         y1="0"
         y2="0" />
    </g>
    <g
       class="group-tick"
       transform="matrix(-0.93329797,-0.35910291,0.35910291,-0.93329797,-410.65111,-158.00528)"
       id="g388">
      <line
         x2="6"
         id="line390"
         x1="0"
         y1="0"
         y2="0" />
    </g>
    <g
       class="group-tick"
       transform="matrix(-0.90974024,-0.41517792,0.41517792,-0.90974024,-400.2857,-182.67828)"
       id="g392">
      <line
         x2="6"
         id="line394"
         x1="0"
         y1="0"
         y2="0" />
    </g>
    <g
       class="group-tick"
       transform="matrix(-0.88281703,-0.46971703,0.46971703,-0.88281703,-388.43949,-206.67549)"
       id="g396">
      <line
         x2="6"
         id="line398"
         x1="0"
         y1="0"
         y2="0" />
    </g>
    <g
       class="group-tick"
       transform="matrix(-0.85262796,-0.52251848,0.52251848,-0.85262796,-375.1563,-229.90813)"
       id="g400">
      <line
         x2="6"
         id="line402"
         x1="0"
         y1="0"
         y2="0" />
      <text
         x="8"
         dy="0"
         transform="matrix(-1,0,0,-1,16,0)"
         style="text-anchor:end"
         id="text404">35k</text>
    </g>
    <g
       class="group-tick"
       transform="matrix(-0.8192847,-0.57338694,0.57338694,-0.8192847,-360.48527,-252.29025)"
       id="g406">
      <line
         x2="6"
         id="line408"
         x1="0"
         y1="0"
         y2="0" />
    </g>
    <g
       class="group-tick"
       transform="matrix(-0.7829106,-0.62213423,0.62213423,-0.7829106,-344.48066,-273.73906)"
       id="g410">
      <line
         x2="6"
         id="line412"
         x1="0"
         y1="0"
         y2="0" />
    </g>
    <g
       class="group-tick"
       transform="matrix(-0.74364022,-0.66858001,0.66858001,-0.74364022,-327.2017,-294.1752)"
       id="g414">
      <line
         x2="6"
         id="line416"
         x1="0"
         y1="0"
         y2="0" />
    </g>
    <g
       class="group-tick"
       transform="matrix(-0.70161883,-0.71255246,0.71255246,-0.70161883,-308.71229,-313.52308)"
       id="g418">
      <line
         x2="6"
         id="line420"
         x1="0"
         y1="0"
         y2="0" />
    </g>
    <g
       class="group-tick"
       transform="matrix(-0.6570019,-0.75388892,0.75388892,-0.6570019,-289.08084,-331.71112)"
       id="g422">
      <line
         x2="6"
         id="line424"
         x1="0"
         y1="0"
         y2="0" />
      <text
         x="8"
         dy="0"
         transform="matrix(-1,0,0,-1,16,0)"
         style="text-anchor:end"
         id="text426">40k</text>
    </g>
    <g
       id="g428">
      <path
         inkscape:connector-curvature="0"
         id="path430"
         style="fill:#f26223;stroke:#a94519"
         d="m -265.99952,-350.49145 a 440,440 0 0 1 244.008686,-88.95866 l 1.499375,29.9625 a 410,410 0 0 0 -227.371731,82.89331 z" />
      <g
         id="g432"
         transform="matrix(-0.60454437,-0.79657147,0.79657147,-0.60454437,-265.99952,-350.49145)"
         class="group-tick">
        <line
           y2="0"
           y1="0"
           x1="0"
           id="line434"
           x2="6" />
        <text
           id="text436"
           style="text-anchor:end"
           transform="matrix(-1,0,0,-1,16,0)"
           dy="0"
           x="8">0k</text>
      </g>
      <g
         id="g438"
         transform="matrix(-0.55499911,-0.83185094,0.83185094,-0.55499911,-244.19961,-366.01441)"
         class="group-tick">
        <line
           y2="0"
           y1="0"
           x1="0"
           id="line440"
           x2="6" />
      </g>
      <g
         id="g442"
         transform="matrix(-0.50340071,-0.86405308,0.86405308,-0.50340071,-221.49631,-380.18336)"
         class="group-tick">
        <line
           y2="0"
           y1="0"
           x1="0"
           id="line444"
           x2="6" />
      </g>
      <g
         id="g446"
         transform="matrix(-0.44994004,-0.89305877,0.89305877,-0.44994004,-197.97362,-392.94586)"
         class="group-tick">
        <line
           y2="0"
           y1="0"
           x1="0"
           id="line448"
           x2="6" />
      </g>
      <g
         id="g450"
         transform="matrix(-0.39481487,-0.9187607,0.9187607,-0.39481487,-173.71854,-404.25471)"
         class="group-tick">
        <line
           y2="0"
           y1="0"
           x1="0"
           id="line452"
           x2="6" />
      </g>
      <g
         id="g454"
         transform="matrix(-0.33822913,-0.94106379,0.94106379,-0.33822913,-148.82082,-414.06807)"
         class="group-tick">
        <line
           y2="0"
           y1="0"
           x1="0"
           id="line456"
           x2="6" />
        <text
           id="text458"
           style="text-anchor:end"
           transform="matrix(-1,0,0,-1,16,0)"
           dy="0"
           x="8">5k</text>
      </g>
      <g
         id="g460"
         transform="matrix(-0.28039216,-0.95988553,0.95988553,-0.28039216,-123.37255,-422.34963)"
         class="group-tick">
        <line
           y2="0"
           y1="0"
           x1="0"
           id="line462"
           x2="6" />
      </g>
      <g
         id="g464"
         transform="matrix(-0.22151791,-0.9751563,0.9751563,-0.22151791,-97.467882,-429.06877)"
         class="group-tick">
        <line
           y2="0"
           y1="0"
           x1="0"
           id="line466"
           x2="6" />
      </g>
      <g
         id="g468"
         transform="matrix(-0.16182419,-0.9868196,0.9868196,-0.16182419,-71.202643,-434.20063)"
         class="group-tick">
        <line
           y2="0"
           y1="0"
           x1="0"
           id="line470"
           x2="6" />
      </g>
      <g
         id="g472"
         transform="matrix(-0.10153182,-0.99483229,0.99483229,-0.10153182,-44.674,-437.72621)"
         class="group-tick">
        <line
           y2="0"
           y1="0"
           x1="0"
           id="line474"
           x2="6" />
      </g>
    </g>
    <path
       inkscape:connector-curvature="0"
       id="path478"
       style="fill:#000000;stroke:#000000"
       d="m 0,-410 a 410,410 0 0 1 272.94616,104.05819 Q 0,0 0,-410 Z" />
    <path
       inkscape:connector-curvature="0"
       id="path480"
       style="fill:#ffdd89;stroke:#b39b60"
       d="M 391.69304,-121.14687 A 410,410 0 0 1 409.32979,23.43337 Q 0,0 72.272146,403.5799 a 410,410 0 0 1 -48.294087,5.71834 Q 0,0 391.69304,-121.14687 Z" />
    <path
       inkscape:connector-curvature="0"
       id="path482"
       style="fill:#957244;stroke:#685030"
       d="m 272.94616,-305.94181 a 410,410 0 0 1 118.74688,184.79494 Q 0,0 -380.08899,-153.7282 a 410,410 0 0 1 116.21265,-160.06995 Q 0,0 272.94616,-305.94181 Z" />
    <path
       inkscape:connector-curvature="0"
       id="path484"
       style="fill:#f26223;stroke:#a94519"
       d="M 409.32979,23.43337 A 410,410 0 0 1 399.04831,94.129933 Q 0,0 -93.082772,-399.29387 a 410,410 0 0 1 24.766662,-4.97449 Q 0,0 409.32979,23.43337 Z" />
    <path
       inkscape:connector-curvature="0"
       id="path486"
       style="fill:#ffdd89;stroke:#b39b60"
       d="M 393.84507,113.9564 A 410,410 0 0 1 257.13712,319.34386 Q 0,0 393.84507,113.9564 Z" />
    <path
       inkscape:connector-curvature="0"
       id="path488"
       style="fill:#ffdd89;stroke:#b39b60"
       d="M 3.4917062,409.98513 A 410,410 0 0 1 -339.03851,230.5491 Q 0,0 122.14722,391.38224 A 410,410 0 0 1 72.272146,403.5799 Q 0,0 3.4917062,409.98513 Z" />
    <path
       inkscape:connector-curvature="0"
       id="path490"
       style="fill:#f26223;stroke:#a94519"
       d="m 257.13712,319.34386 a 410,410 0 0 1 -134.9899,72.03838 Q 0,0 -68.31611,-404.26836 a 410,410 0 0 1 24.455605,-3.37886 Q 0,0 257.13712,319.34386 Z" />
    <path
       inkscape:connector-curvature="0"
       id="path492"
       style="fill:#957244;stroke:#685030"
       d="M -339.03851,230.5491 A 410,410 0 0 1 -407.73968,42.992479 Q 0,0 -339.03851,230.5491 Z" />
    <path
       inkscape:connector-curvature="0"
       id="path494"
       style="fill:#f26223;stroke:#a94519"
       d="M -407.73968,42.992479 A 410,410 0 0 1 -380.08899,-153.7282 Q 0,0 -43.860505,-407.64722 a 410,410 0 0 1 23.369046,-1.84039 Q 0,0 -407.73968,42.992479 Z" />
    <path
       inkscape:connector-curvature="0"
       id="path496"
       style="fill:#f26223;stroke:#a94519"
       d="m -247.86319,-326.5943 a 410,410 0 0 1 154.780418,-72.69957 Q 0,0 -247.86319,-326.5943 Z" />
  </g>
</svg>
